<?xml version="1.0" encoding="UTF-8" standalone="no"?>
<svg
   xmlns:dc="http://purl.org/dc/elements/1.1/"
   xmlns:cc="http://creativecommons.org/ns#"
   xmlns:rdf="http://www.w3.org/1999/02/22-rdf-syntax-ns#"
   xmlns:svg="http://www.w3.org/2000/svg"
   xmlns="http://www.w3.org/2000/svg"
   xmlns:sodipodi="http://sodipodi.sourceforge.net/DTD/sodipodi-0.dtd"
   xmlns:inkscape="http://www.inkscape.org/namespaces/inkscape"
   inkscape:version="1.0 (b51213c273, 2020-08-10)"
   height="50"
   width="50"
   sodipodi:docname="013.svg"
   version="1.1"
   viewBox="0 0 50 50"
   id="ART">
  <metadata
     id="metadata29">
    <rdf:RDF>
      <cc:Work
         rdf:about="">
        <dc:format>image/svg+xml</dc:format>
        <dc:type
           rdf:resource="http://purl.org/dc/dcmitype/StillImage" />
        <dc:title></dc:title>
      </cc:Work>
    </rdf:RDF>
  </metadata>
  <sodipodi:namedview
     inkscape:current-layer="ART"
     inkscape:window-maximized="1"
     inkscape:window-y="282"
     inkscape:window-x="1680"
     inkscape:cy="28.715794"
     inkscape:cx="21.291362"
     inkscape:zoom="5.2608745"
     showgrid="false"
     id="namedview27"
     inkscape:window-height="731"
     inkscape:window-width="1366"
     inkscape:pageshadow="2"
     inkscape:pageopacity="0"
     guidetolerance="10"
     gridtolerance="10"
     objecttolerance="10"
     borderopacity="1"
     bordercolor="#666666"
     pagecolor="#ffffff"
     inkscape:document-rotation="0"
     showguides="true"
     inkscape:guide-bbox="true">
    <sodipodi:guide
       position="9.5430107,22.311828"
       orientation="1,0"
       id="guide841" />
    <sodipodi:guide
       position="24.995844,42.681825"
       orientation="0,-1"
       id="guide843" />
    <sodipodi:guide
       position="40.582607,29.471094"
       orientation="1,0"
       id="guide845" />
    <sodipodi:guide
       position="26.516504,7.61161"
       orientation="0,-1"
       id="guide847" />
  </sodipodi:namedview>
  <defs
     id="defs4">
    <style
       id="style2">.cls-1,.cls-2{fill:#ffc533;}.cls-1,.cls-2,.cls-3,.cls-4{stroke:#000;}.cls-1{stroke-linecap:round;stroke-linejoin:round;}.cls-1,.cls-3{stroke-width:2px;}.cls-2,.cls-3,.cls-4{stroke-miterlimit:10;}.cls-2,.cls-4{stroke-width:4px;}.cls-3{fill:#fff;}.cls-4{fill:#ea6726;}</style>
    <style
       id="style849">.cls-1{fill:#b7b4b3;stroke-width:4px;}.cls-1,.cls-2,.cls-3,.cls-4{stroke:#000;stroke-miterlimit:10;}.cls-2{fill:#7a5342;}.cls-2,.cls-4{stroke-linecap:round;}.cls-2,.cls-3,.cls-4{stroke-width:2px;}.cls-3{fill:#c9c9c9;}.cls-4{fill:#4c3e38;}.cls-5{fill:#9b9998;}</style>
    <style
       id="style904">.cls-1,.cls-3{fill:#a0683a;}.cls-1,.cls-3,.cls-4,.cls-5,.cls-6,.cls-7{stroke:#000;}.cls-1,.cls-3,.cls-4,.cls-5,.cls-6{stroke-miterlimit:10;}.cls-1,.cls-5,.cls-7{stroke-width:2px;}.cls-2{fill:#70411d;}.cls-3,.cls-4{stroke-width:4px;}.cls-4{fill:#c48a51;}.cls-5{fill:#fff;}.cls-6{fill:#e29149;stroke-width:3px;}.cls-7{fill:none;stroke-linecap:round;stroke-linejoin:round;}</style>
    <style
       id="style973">.cls-1,.cls-2{fill:#91592c;}.cls-1,.cls-4,.cls-5,.cls-6,.cls-7{stroke:#000;}.cls-1,.cls-4,.cls-6,.cls-7{stroke-miterlimit:10;}.cls-1,.cls-6{stroke-width:4px;}.cls-3{fill:#683023;}.cls-4{fill:#281614;}.cls-4,.cls-5,.cls-7{stroke-width:2px;}.cls-5{fill:#6d3722;stroke-miterlimit:20;}.cls-6{fill:#5e3730;}.cls-7{fill:#fff;}</style>
    <style
       id="style1062">.cls-1,.cls-4{fill:#acb3ba;}.cls-1,.cls-3,.cls-5,.cls-6,.cls-7{stroke:#000;}.cls-1,.cls-3,.cls-5,.cls-7{stroke-miterlimit:10;}.cls-1,.cls-3{stroke-width:4px;}.cls-2{fill:#72767a;}.cls-3{fill:#d1d1d1;}.cls-5{fill:#fff;}.cls-6{fill:none;stroke-linecap:round;stroke-linejoin:round;}.cls-7{fill:#6b6e70;stroke-width:2px;}</style>
    <style
       id="style1136">.cls-1{fill:#9ea9ac;}.cls-1,.cls-3,.cls-4,.cls-5,.cls-6{stroke:#000;}.cls-1,.cls-3,.cls-4{stroke-miterlimit:10;}.cls-1,.cls-3,.cls-5{stroke-width:4px;}.cls-2{fill:#5e6c70;}.cls-3,.cls-5{fill:#b4bfc2;}.cls-4{fill:#fceebb;stroke-width:2px;}.cls-5,.cls-6{stroke-linecap:round;stroke-linejoin:round;}.cls-6{fill:#fcfcfc;stroke-width:1.89px;}</style>
    <style
       id="style1211">.cls-1{fill:#ccc;stroke-linejoin:round;stroke-width:4px;}.cls-1,.cls-2,.cls-3{stroke:#000;}.cls-2{fill:#bf7d47;stroke-width:3px;}.cls-2,.cls-3{stroke-linecap:round;stroke-miterlimit:10;}.cls-3{fill:#eddbae;}.cls-4{fill:#e2a350;}</style>
    <style
       id="style1272">.cls-1,.cls-2{fill:#444;}.cls-1,.cls-4,.cls-5,.cls-6,.cls-8{stroke:#000;stroke-miterlimit:10;}.cls-1{stroke-width:4px;}.cls-3{fill:#bcbcbc;}.cls-4,.cls-6{fill:#333;}.cls-4,.cls-5,.cls-6,.cls-8{stroke-width:2px;}.cls-5{fill:none;}.cls-6{stroke-linecap:round;}.cls-7{fill:#7f7f7f;}.cls-8{fill:#fff797;}</style>
    <style
       id="style1357">.cls-1{fill:#b26f2d;}.cls-1,.cls-10,.cls-3,.cls-4,.cls-6,.cls-7,.cls-9{stroke:#000;stroke-miterlimit:10;}.cls-1,.cls-3{stroke-width:4px;}.cls-2{fill:#d8985d;}.cls-3{fill:#dd852f;}.cls-4,.cls-5{fill:#f2c497;}.cls-4,.cls-6,.cls-7,.cls-9{stroke-width:2px;}.cls-6{fill:#efdfc4;}.cls-7{fill:#fff;}.cls-8{fill:#4c331c;}.cls-10,.cls-9{fill:none;}.cls-9{stroke-linecap:round;}</style>
    <style
       id="style1449">.cls-1{fill:#40586a;}.cls-2{fill:#d3dae0;stroke-width:4px;}.cls-2,.cls-3,.cls-5,.cls-6,.cls-7{stroke:#000;}.cls-2,.cls-3,.cls-7{stroke-miterlimit:10;}.cls-3,.cls-6{fill:none;}.cls-4{fill:#8095a0;}.cls-5{fill:#001723;}.cls-5,.cls-6{stroke-linecap:round;stroke-linejoin:round;}.cls-5,.cls-7{stroke-width:2px;}.cls-6{stroke-width:3px;}.cls-7{fill:#e8e6ac;}</style>
    <style
       id="style1522">.cls-1,.cls-2,.cls-3{fill:#a7b6c4;}.cls-1,.cls-2,.cls-3,.cls-4,.cls-5,.cls-6{stroke:#000;}.cls-1{stroke-linecap:round;stroke-linejoin:round;}.cls-1,.cls-2,.cls-5,.cls-6{stroke-width:2px;}.cls-2,.cls-3,.cls-4,.cls-5,.cls-6{stroke-miterlimit:10;}.cls-3{stroke-width:3px;}.cls-4{fill:#6d839b;stroke-width:4px;}.cls-5{fill:#44372e;}.cls-6{fill:#fff;}.cls-7{fill:#384856;}</style>
    <style
       id="style1586">.cls-1{fill:#0980aa;}.cls-1,.cls-3,.cls-4{stroke:#000;stroke-linecap:round;stroke-miterlimit:10;}.cls-1,.cls-3{stroke-width:4px;}.cls-2{fill:#083a47;}.cls-3{fill:#73bbd8;}.cls-4{fill:#86d9e2;stroke-width:2px;}.cls-5{fill:#0d5f75;}</style>
  </defs>
  <rect
     ry="25"
     rx="25"
     y="0"
     x="0"
     height="50"
     width="50"
     id="rect42"
     style="fill:#e6e6e6;fill-rule:evenodd;stroke-width:1.01205" />
  <g
     id="g1646"
     transform="matrix(0.26032292,0,0,0.26032292,5.4759404,5.4744794)">
    <path
       class="cls-1"
       d="m 76.33,137.56 c -0.44,0 -0.89,0 -1.33,0 -0.44,0 -0.89,0 -1.33,0 -37.34,0 -62.68,-23 -60.23,-51.56 3,-35 22,-79.33 60.23,-79.33 h 2.66 c 38.23,0 57.23,44.33 60.23,79.33 2.44,28.6 -22.89,51.56 -60.23,51.56 z"
       id="path1592" />
    <path
       class="cls-2"
       d="m 106.32,97.27 c 2.73,28.35 -11.62,19.09 -30,19.09 -18.38,0 -32.72,9.27 -30,-19.09 2.31,-24 6.17,-40.87 30,-40.87 23.83,0 27.68,16.89 30,40.87 z"
       id="path1594" />
    <path
       class="cls-3"
       d="m 106.49,103.51 c 2.91,15 -11.58,39.83 -30.16,39.83 -18.58,0 -33.07,-24.85 -30.16,-39.83 2.44,-12.55 6.37,3.28 30.16,3.28 23.79,0 27.73,-15.79 30.16,-3.28 z"
       id="path1596" />
    <path
       class="cls-3"
       d="m 106.65,92.91 c 4,46 -13.93,-7.4 -30.32,-7.4 -16.39,0 -34.33,53.41 -30.33,7.4 3.17,-36.41 8.1,-69.22 30.33,-69.22 22.23,0 27.16,32.81 30.32,69.22 z"
       id="path1598" />
    <ellipse
       class="cls-4"
       cx="40.540001"
       cy="44.389999"
       rx="15.79"
       ry="9.8599997"
       transform="rotate(-75,40.54021,44.390191)"
       id="ellipse1600" />
    <ellipse
       cx="41.540001"
       cy="47.389999"
       rx="11.05"
       ry="6.9000001"
       transform="rotate(-75,41.543855,47.386158)"
       id="ellipse1602" />
    <ellipse
       class="cls-4"
       cx="112.12"
       cy="44.389999"
       rx="9.8599997"
       ry="15.79"
       transform="matrix(0.97,-0.26,0.26,0.97,-7.67,30.53)"
       id="ellipse1604" />
    <ellipse
       cx="111.12"
       cy="47.389999"
       rx="6.9000001"
       ry="11.05"
       transform="rotate(-15,111.1395,47.395997)"
       id="ellipse1606" />
    <ellipse
       class="cls-5"
       cx="119.02"
       cy="106.87"
       rx="5.4400001"
       ry="2.6900001"
       transform="rotate(-77.32,119.02039,106.8712)"
       id="ellipse1608" />
    <ellipse
       class="cls-5"
       cx="127.02"
       cy="94.370003"
       rx="2.1400001"
       ry="4.3400002"
       transform="rotate(-1.43,127.04768,94.550565)"
       id="ellipse1610" />
    <ellipse
       class="cls-5"
       cx="116.65"
       cy="91"
       rx="2.1400001"
       ry="3.48"
       transform="rotate(-19.14,116.65703,91.005851)"
       id="ellipse1612" />
    <ellipse
       class="cls-5"
       cx="30.940001"
       cy="106.89"
       rx="2.6800001"
       ry="5.4200001"
       transform="rotate(-12.68,30.94629,106.89812)"
       id="ellipse1614" />
    <ellipse
       class="cls-5"
       cx="22.969999"
       cy="94.440002"
       rx="4.3200002"
       ry="2.1400001"
       transform="rotate(-88.57,22.963814,94.44015)"
       id="ellipse1616" />
    <ellipse
       class="cls-5"
       cx="33.349998"
       cy="91"
       rx="3.48"
       ry="2.1400001"
       transform="rotate(-70.86,33.347434,91.004253)"
       id="ellipse1618" />
    <path
       d="m 75,39.3 c -0.65,3.68 -2.72,6.4 -4.62,6.07 -1.9,-0.33 -4.47,-0.45 -3.82,-4.14 0.65,-3.69 4.24,-9.55 6.14,-9.23 1.9,0.32 2.92,3.61 2.3,7.3 z"
       id="path1620" />
    <path
       d="m 77.7,39.3 c 0.65,3.68 2.72,6.4 4.62,6.07 1.9,-0.33 4.47,-0.45 3.82,-4.14 C 85.49,37.54 81.87,31.68 80,32 c -1.87,0.32 -2.95,3.61 -2.3,7.3 z"
       id="path1622" />
  </g>
</svg>
