<?xml version="1.0" encoding="UTF-8" standalone="no"?>
<svg
   xmlns:dc="http://purl.org/dc/elements/1.1/"
   xmlns:cc="http://creativecommons.org/ns#"
   xmlns:rdf="http://www.w3.org/1999/02/22-rdf-syntax-ns#"
   xmlns:svg="http://www.w3.org/2000/svg"
   xmlns="http://www.w3.org/2000/svg"
   xmlns:sodipodi="http://sodipodi.sourceforge.net/DTD/sodipodi-0.dtd"
   xmlns:inkscape="http://www.inkscape.org/namespaces/inkscape"
   inkscape:version="1.0 (b51213c273, 2020-08-10)"
   height="50"
   width="50"
   sodipodi:docname="006.svg"
   version="1.1"
   viewBox="0 0 50 50"
   id="ART">
  <metadata
     id="metadata29">
    <rdf:RDF>
      <cc:Work
         rdf:about="">
        <dc:format>image/svg+xml</dc:format>
        <dc:type
           rdf:resource="http://purl.org/dc/dcmitype/StillImage" />
        <dc:title></dc:title>
      </cc:Work>
    </rdf:RDF>
  </metadata>
  <sodipodi:namedview
     inkscape:current-layer="ART"
     inkscape:window-maximized="1"
     inkscape:window-y="282"
     inkscape:window-x="1680"
     inkscape:cy="20.693193"
     inkscape:cx="0.17916216"
     inkscape:zoom="5.2608745"
     showgrid="false"
     id="namedview27"
     inkscape:window-height="731"
     inkscape:window-width="1366"
     inkscape:pageshadow="2"
     inkscape:pageopacity="0"
     guidetolerance="10"
     gridtolerance="10"
     objecttolerance="10"
     borderopacity="1"
     bordercolor="#666666"
     pagecolor="#ffffff"
     inkscape:document-rotation="0"
     showguides="true"
     inkscape:guide-bbox="true">
    <sodipodi:guide
       position="9.5430107,22.311828"
       orientation="1,0"
       id="guide841" />
    <sodipodi:guide
       position="24.995844,42.681825"
       orientation="0,-1"
       id="guide843" />
    <sodipodi:guide
       position="40.582607,29.471094"
       orientation="1,0"
       id="guide845" />
    <sodipodi:guide
       position="26.516504,7.61161"
       orientation="0,-1"
       id="guide847" />
  </sodipodi:namedview>
  <defs
     id="defs4">
    <style
       id="style2">.cls-1,.cls-2{fill:#ffc533;}.cls-1,.cls-2,.cls-3,.cls-4{stroke:#000;}.cls-1{stroke-linecap:round;stroke-linejoin:round;}.cls-1,.cls-3{stroke-width:2px;}.cls-2,.cls-3,.cls-4{stroke-miterlimit:10;}.cls-2,.cls-4{stroke-width:4px;}.cls-3{fill:#fff;}.cls-4{fill:#ea6726;}</style>
    <style
       id="style849">.cls-1{fill:#b7b4b3;stroke-width:4px;}.cls-1,.cls-2,.cls-3,.cls-4{stroke:#000;stroke-miterlimit:10;}.cls-2{fill:#7a5342;}.cls-2,.cls-4{stroke-linecap:round;}.cls-2,.cls-3,.cls-4{stroke-width:2px;}.cls-3{fill:#c9c9c9;}.cls-4{fill:#4c3e38;}.cls-5{fill:#9b9998;}</style>
    <style
       id="style904">.cls-1,.cls-3{fill:#a0683a;}.cls-1,.cls-3,.cls-4,.cls-5,.cls-6,.cls-7{stroke:#000;}.cls-1,.cls-3,.cls-4,.cls-5,.cls-6{stroke-miterlimit:10;}.cls-1,.cls-5,.cls-7{stroke-width:2px;}.cls-2{fill:#70411d;}.cls-3,.cls-4{stroke-width:4px;}.cls-4{fill:#c48a51;}.cls-5{fill:#fff;}.cls-6{fill:#e29149;stroke-width:3px;}.cls-7{fill:none;stroke-linecap:round;stroke-linejoin:round;}</style>
    <style
       id="style973">.cls-1,.cls-2{fill:#91592c;}.cls-1,.cls-4,.cls-5,.cls-6,.cls-7{stroke:#000;}.cls-1,.cls-4,.cls-6,.cls-7{stroke-miterlimit:10;}.cls-1,.cls-6{stroke-width:4px;}.cls-3{fill:#683023;}.cls-4{fill:#281614;}.cls-4,.cls-5,.cls-7{stroke-width:2px;}.cls-5{fill:#6d3722;stroke-miterlimit:20;}.cls-6{fill:#5e3730;}.cls-7{fill:#fff;}</style>
    <style
       id="style1062">.cls-1,.cls-4{fill:#acb3ba;}.cls-1,.cls-3,.cls-5,.cls-6,.cls-7{stroke:#000;}.cls-1,.cls-3,.cls-5,.cls-7{stroke-miterlimit:10;}.cls-1,.cls-3{stroke-width:4px;}.cls-2{fill:#72767a;}.cls-3{fill:#d1d1d1;}.cls-5{fill:#fff;}.cls-6{fill:none;stroke-linecap:round;stroke-linejoin:round;}.cls-7{fill:#6b6e70;stroke-width:2px;}</style>
  </defs>
  <rect
     ry="25"
     rx="25"
     y="0"
     x="0"
     height="50"
     width="50"
     id="rect42"
     style="fill:#e6e6e6;fill-rule:evenodd;stroke-width:1.01205" />
  <g
     id="g1116"
     transform="matrix(0.24133994,0,0,0.24133994,6.899502,6.9007003)">
    <path
       class="cls-1"
       d="m 81.06,48.54 c -6.11,25.87 -4,48.51 4.8,50.57 8.8,2.06 23.44,-32.74 26.92,-43.11 3.48,-10.37 4,-48.51 -4.8,-50.57 -8.8,-2.06 -20.82,17.24 -26.92,43.11 z"
       data-name="&lt;Path&gt;"
       id="_Path_" />
    <path
       class="cls-1"
       d="m 68.94,48.54 c 6.11,25.87 4,48.51 -4.8,50.57 C 55.34,101.17 40.7,66.37 37.22,56 33.74,45.63 33.27,7.5 42,5.44 50.73,3.38 62.84,22.67 68.94,48.54 Z"
       data-name="&lt;Path&gt;"
       id="_Path_2" />
    <path
       class="cls-2"
       d="M 110.88,55.38 A 185.48,185.48 0 0 1 99.77,80.89 C 98,61.93 102.49,33.78 108.45,8 a 6.51,6.51 0 0 1 1,1.41 c 5.03,8.98 4.14,37.89 1.43,45.97 z"
       id="path1070" />
    <path
       class="cls-2"
       d="M 50.23,80.89 A 185.48,185.48 0 0 1 39.12,55.38 c -2.71,-8.08 -3.6,-37 1.41,-46 a 6.51,6.51 0 0 1 1,-1.41 c 5.98,25.81 10.47,53.96 8.7,72.92 z"
       id="path1072" />
    <path
       class="cls-3"
       d="M 75,144.71 C 48.95,144.71 21,124.38 32.55,97.2 42.93,72.88 48.95,49.68 75,49.68 c 26.05,0 32.07,23.2 42.45,47.51 11.55,27.19 -16.4,47.52 -42.45,47.52 z"
       data-name="&lt;Path&gt;"
       id="_Path_3" />
    <path
       class="cls-4"
       d="m 118,112.37 a 26,26 0 0 1 -4.3,11.7 c -7.36,11.15 -22.91,18.64 -38.68,18.64 -15.77,0 -31.32,-7.49 -38.68,-18.64 a 26,26 0 0 1 -4.3,-11.7 c 11.89,-5.74 26.8,-9 43,-9 16.2,0 31.05,3.26 42.96,9 z"
       id="path1075" />
    <ellipse
       class="cls-5"
       cx="95.18"
       cy="90.639999"
       rx="7.27"
       ry="7.6999998"
       id="ellipse1077" />
    <ellipse
       cx="93.18"
       cy="90.639999"
       rx="4.4899998"
       ry="4.75"
       id="ellipse1079" />
    <ellipse
       class="cls-5"
       cx="54.82"
       cy="90.639999"
       rx="7.27"
       ry="7.6999998"
       id="ellipse1081" />
    <ellipse
       cx="56.82"
       cy="90.639999"
       rx="4.4899998"
       ry="4.75"
       id="ellipse1083" />
    <path
       class="cls-5"
       d="m 75,121.87 v 5 a 3,3 0 0 1 -3,3 h -0.39 a 3,3 0 0 1 -3,-3 V 124"
       id="path1085" />
    <path
       class="cls-5"
       d="m 75,120.87 v 6 a 3,3 0 0 0 3,3 h 0.39 a 3,3 0 0 0 3,-3 V 124"
       id="path1087" />
    <path
       class="cls-6"
       d="M 61.07,122.89 C 64.75,126 75,123 75,120.45"
       id="path1089" />
    <path
       class="cls-6"
       d="M 88.93,122.89 C 85.25,126 75,123 75,120.45"
       id="path1091" />
    <path
       class="cls-7"
       d="m 83,115 c -0.05,4.44 -6.4,5.43 -8.11,5.41 -1.71,-0.02 -8,-1.15 -8,-5.6 0,-4.45 3.75,-13.09 8.2,-13 4.45,0.09 7.97,8.78 7.91,13.19 z"
       id="path1093" />
  </g>
</svg>
