<?xml version="1.0" encoding="UTF-8" standalone="no"?>
<svg
   xmlns:dc="http://purl.org/dc/elements/1.1/"
   xmlns:cc="http://creativecommons.org/ns#"
   xmlns:rdf="http://www.w3.org/1999/02/22-rdf-syntax-ns#"
   xmlns:svg="http://www.w3.org/2000/svg"
   xmlns="http://www.w3.org/2000/svg"
   xmlns:sodipodi="http://sodipodi.sourceforge.net/DTD/sodipodi-0.dtd"
   xmlns:inkscape="http://www.inkscape.org/namespaces/inkscape"
   inkscape:version="1.0 (b51213c273, 2020-08-10)"
   height="50"
   width="50"
   sodipodi:docname="003.svg"
   version="1.1"
   viewBox="0 0 50 50"
   id="ART">
  <metadata
     id="metadata29">
    <rdf:RDF>
      <cc:Work
         rdf:about="">
        <dc:format>image/svg+xml</dc:format>
        <dc:type
           rdf:resource="http://purl.org/dc/dcmitype/StillImage" />
        <dc:title></dc:title>
      </cc:Work>
    </rdf:RDF>
  </metadata>
  <sodipodi:namedview
     inkscape:current-layer="ART"
     inkscape:window-maximized="1"
     inkscape:window-y="282"
     inkscape:window-x="1680"
     inkscape:cy="20.693193"
     inkscape:cx="0.17916216"
     inkscape:zoom="5.2608745"
     showgrid="false"
     id="namedview27"
     inkscape:window-height="731"
     inkscape:window-width="1366"
     inkscape:pageshadow="2"
     inkscape:pageopacity="0"
     guidetolerance="10"
     gridtolerance="10"
     objecttolerance="10"
     borderopacity="1"
     bordercolor="#666666"
     pagecolor="#ffffff"
     inkscape:document-rotation="0"
     showguides="true"
     inkscape:guide-bbox="true">
    <sodipodi:guide
       position="9.5430107,22.311828"
       orientation="1,0"
       id="guide841" />
    <sodipodi:guide
       position="24.995844,42.681825"
       orientation="0,-1"
       id="guide843" />
    <sodipodi:guide
       position="40.582607,29.471094"
       orientation="1,0"
       id="guide845" />
    <sodipodi:guide
       position="26.516504,7.61161"
       orientation="0,-1"
       id="guide847" />
  </sodipodi:namedview>
  <defs
     id="defs4">
    <style
       id="style2">.cls-1,.cls-2{fill:#ffc533;}.cls-1,.cls-2,.cls-3,.cls-4{stroke:#000;}.cls-1{stroke-linecap:round;stroke-linejoin:round;}.cls-1,.cls-3{stroke-width:2px;}.cls-2,.cls-3,.cls-4{stroke-miterlimit:10;}.cls-2,.cls-4{stroke-width:4px;}.cls-3{fill:#fff;}.cls-4{fill:#ea6726;}</style>
    <style
       id="style849">.cls-1{fill:#b7b4b3;stroke-width:4px;}.cls-1,.cls-2,.cls-3,.cls-4{stroke:#000;stroke-miterlimit:10;}.cls-2{fill:#7a5342;}.cls-2,.cls-4{stroke-linecap:round;}.cls-2,.cls-3,.cls-4{stroke-width:2px;}.cls-3{fill:#c9c9c9;}.cls-4{fill:#4c3e38;}.cls-5{fill:#9b9998;}</style>
  </defs>
  <rect
     ry="25"
     rx="25"
     y="0"
     x="0"
     height="50"
     width="50"
     id="rect42"
     style="fill:#e6e6e6;fill-rule:evenodd;stroke-width:1.01205" />
  <g
     id="g884"
     transform="matrix(0.2244653,0,0,0.2244653,8.1650967,8.1667835)">
    <path
       class="cls-1"
       d="M 139.05,110.65 C 129.5,131.65 90.86,144.1 75,144.1 59.14,144.1 20.5,131.65 10.95,110.65 3.16,93.55 22.89,68.57 22.89,58 a 52.115,52.115 0 1 1 104.23,0 c -0.01,10.57 19.72,35.55 11.93,52.65 z"
       data-name="&lt;Path&gt;"
       id="_Path_" />
    <path
       class="cls-2"
       d="M 94.56,96.75 C 84.72,92.41 75.64,88.34 73.29,84.69 70.94,88.33 61.85,92.41 52,96.75 c 0.68,0.76 9.52,14.34 21.27,14.35 v 0 C 85,111.09 93.87,97.5 94.56,96.75 Z"
       id="path856" />
    <ellipse
       class="cls-3"
       cx="112.42"
       cy="76.019997"
       rx="6.0599999"
       ry="10.78"
       id="ellipse858" />
    <ellipse
       class="cls-3"
       cx="37.580002"
       cy="76.019997"
       rx="6.0599999"
       ry="10.78"
       id="ellipse860" />
    <path
       class="cls-4"
       d="M 94.52,96.08 C 84.7,99.98 75.63,103.23 73.29,106.51 70.95,103.22 61.87,100 52,96.08 52.68,95.4 61.5,82.76 73.23,82.75 v 0 C 85,82.76 93.84,95.4 94.52,96.08 Z"
       id="path862" />
    <ellipse
       cx="111.42"
       cy="77.019997"
       rx="4.8000002"
       ry="8.54"
       id="ellipse864" />
    <ellipse
       cx="38.580002"
       cy="77.019997"
       rx="4.8000002"
       ry="8.54"
       id="ellipse866" />
    <path
       class="cls-5"
       d="m 138.72,104.26 a 18,18 0 0 1 -1.49,5.56 c -9,19.71 -45.9,32.28 -62.23,32.28 -16.33,0 -53.27,-12.57 -62.23,-32.28 a 18,18 0 0 1 -1.49,-5.56 c 15.91,11.6 38.57,18.85 63.72,18.85 25.15,0 47.81,-7.25 63.72,-18.85 z"
       id="path868" />
  </g>
</svg>
