<?xml version="1.0" encoding="UTF-8" standalone="no"?>
<svg
   xmlns:dc="http://purl.org/dc/elements/1.1/"
   xmlns:cc="http://creativecommons.org/ns#"
   xmlns:rdf="http://www.w3.org/1999/02/22-rdf-syntax-ns#"
   xmlns:svg="http://www.w3.org/2000/svg"
   xmlns="http://www.w3.org/2000/svg"
   xmlns:sodipodi="http://sodipodi.sourceforge.net/DTD/sodipodi-0.dtd"
   xmlns:inkscape="http://www.inkscape.org/namespaces/inkscape"
   inkscape:version="1.0 (b51213c273, 2020-08-10)"
   height="50"
   width="50"
   sodipodi:docname="010.svg"
   version="1.1"
   viewBox="0 0 50 50"
   id="ART">
  <metadata
     id="metadata29">
    <rdf:RDF>
      <cc:Work
         rdf:about="">
        <dc:format>image/svg+xml</dc:format>
        <dc:type
           rdf:resource="http://purl.org/dc/dcmitype/StillImage" />
        <dc:title></dc:title>
      </cc:Work>
    </rdf:RDF>
  </metadata>
  <sodipodi:namedview
     inkscape:current-layer="ART"
     inkscape:window-maximized="1"
     inkscape:window-y="282"
     inkscape:window-x="1680"
     inkscape:cy="28.715794"
     inkscape:cx="21.291362"
     inkscape:zoom="5.2608745"
     showgrid="false"
     id="namedview27"
     inkscape:window-height="731"
     inkscape:window-width="1366"
     inkscape:pageshadow="2"
     inkscape:pageopacity="0"
     guidetolerance="10"
     gridtolerance="10"
     objecttolerance="10"
     borderopacity="1"
     bordercolor="#666666"
     pagecolor="#ffffff"
     inkscape:document-rotation="0"
     showguides="true"
     inkscape:guide-bbox="true">
    <sodipodi:guide
       position="9.5430107,22.311828"
       orientation="1,0"
       id="guide841" />
    <sodipodi:guide
       position="24.995844,42.681825"
       orientation="0,-1"
       id="guide843" />
    <sodipodi:guide
       position="40.582607,29.471094"
       orientation="1,0"
       id="guide845" />
    <sodipodi:guide
       position="26.516504,7.61161"
       orientation="0,-1"
       id="guide847" />
  </sodipodi:namedview>
  <defs
     id="defs4">
    <style
       id="style2">.cls-1,.cls-2{fill:#ffc533;}.cls-1,.cls-2,.cls-3,.cls-4{stroke:#000;}.cls-1{stroke-linecap:round;stroke-linejoin:round;}.cls-1,.cls-3{stroke-width:2px;}.cls-2,.cls-3,.cls-4{stroke-miterlimit:10;}.cls-2,.cls-4{stroke-width:4px;}.cls-3{fill:#fff;}.cls-4{fill:#ea6726;}</style>
    <style
       id="style849">.cls-1{fill:#b7b4b3;stroke-width:4px;}.cls-1,.cls-2,.cls-3,.cls-4{stroke:#000;stroke-miterlimit:10;}.cls-2{fill:#7a5342;}.cls-2,.cls-4{stroke-linecap:round;}.cls-2,.cls-3,.cls-4{stroke-width:2px;}.cls-3{fill:#c9c9c9;}.cls-4{fill:#4c3e38;}.cls-5{fill:#9b9998;}</style>
    <style
       id="style904">.cls-1,.cls-3{fill:#a0683a;}.cls-1,.cls-3,.cls-4,.cls-5,.cls-6,.cls-7{stroke:#000;}.cls-1,.cls-3,.cls-4,.cls-5,.cls-6{stroke-miterlimit:10;}.cls-1,.cls-5,.cls-7{stroke-width:2px;}.cls-2{fill:#70411d;}.cls-3,.cls-4{stroke-width:4px;}.cls-4{fill:#c48a51;}.cls-5{fill:#fff;}.cls-6{fill:#e29149;stroke-width:3px;}.cls-7{fill:none;stroke-linecap:round;stroke-linejoin:round;}</style>
    <style
       id="style973">.cls-1,.cls-2{fill:#91592c;}.cls-1,.cls-4,.cls-5,.cls-6,.cls-7{stroke:#000;}.cls-1,.cls-4,.cls-6,.cls-7{stroke-miterlimit:10;}.cls-1,.cls-6{stroke-width:4px;}.cls-3{fill:#683023;}.cls-4{fill:#281614;}.cls-4,.cls-5,.cls-7{stroke-width:2px;}.cls-5{fill:#6d3722;stroke-miterlimit:20;}.cls-6{fill:#5e3730;}.cls-7{fill:#fff;}</style>
    <style
       id="style1062">.cls-1,.cls-4{fill:#acb3ba;}.cls-1,.cls-3,.cls-5,.cls-6,.cls-7{stroke:#000;}.cls-1,.cls-3,.cls-5,.cls-7{stroke-miterlimit:10;}.cls-1,.cls-3{stroke-width:4px;}.cls-2{fill:#72767a;}.cls-3{fill:#d1d1d1;}.cls-5{fill:#fff;}.cls-6{fill:none;stroke-linecap:round;stroke-linejoin:round;}.cls-7{fill:#6b6e70;stroke-width:2px;}</style>
    <style
       id="style1136">.cls-1{fill:#9ea9ac;}.cls-1,.cls-3,.cls-4,.cls-5,.cls-6{stroke:#000;}.cls-1,.cls-3,.cls-4{stroke-miterlimit:10;}.cls-1,.cls-3,.cls-5{stroke-width:4px;}.cls-2{fill:#5e6c70;}.cls-3,.cls-5{fill:#b4bfc2;}.cls-4{fill:#fceebb;stroke-width:2px;}.cls-5,.cls-6{stroke-linecap:round;stroke-linejoin:round;}.cls-6{fill:#fcfcfc;stroke-width:1.89px;}</style>
    <style
       id="style1211">.cls-1{fill:#ccc;stroke-linejoin:round;stroke-width:4px;}.cls-1,.cls-2,.cls-3{stroke:#000;}.cls-2{fill:#bf7d47;stroke-width:3px;}.cls-2,.cls-3{stroke-linecap:round;stroke-miterlimit:10;}.cls-3{fill:#eddbae;}.cls-4{fill:#e2a350;}</style>
    <style
       id="style1272">.cls-1,.cls-2{fill:#444;}.cls-1,.cls-4,.cls-5,.cls-6,.cls-8{stroke:#000;stroke-miterlimit:10;}.cls-1{stroke-width:4px;}.cls-3{fill:#bcbcbc;}.cls-4,.cls-6{fill:#333;}.cls-4,.cls-5,.cls-6,.cls-8{stroke-width:2px;}.cls-5{fill:none;}.cls-6{stroke-linecap:round;}.cls-7{fill:#7f7f7f;}.cls-8{fill:#fff797;}</style>
    <style
       id="style1357">.cls-1{fill:#b26f2d;}.cls-1,.cls-10,.cls-3,.cls-4,.cls-6,.cls-7,.cls-9{stroke:#000;stroke-miterlimit:10;}.cls-1,.cls-3{stroke-width:4px;}.cls-2{fill:#d8985d;}.cls-3{fill:#dd852f;}.cls-4,.cls-5{fill:#f2c497;}.cls-4,.cls-6,.cls-7,.cls-9{stroke-width:2px;}.cls-6{fill:#efdfc4;}.cls-7{fill:#fff;}.cls-8{fill:#4c331c;}.cls-10,.cls-9{fill:none;}.cls-9{stroke-linecap:round;}</style>
  </defs>
  <rect
     ry="25"
     rx="25"
     y="0"
     x="0"
     height="50"
     width="50"
     id="rect42"
     style="fill:#e6e6e6;fill-rule:evenodd;stroke-width:1.01205" />
  <g
     id="g1429"
     transform="matrix(0.2547423,0,0,0.2547423,5.9168353,5.8891945)">
    <ellipse
       class="cls-1"
       cx="35.509998"
       cy="36.380001"
       rx="19.370001"
       ry="24.219999"
       transform="matrix(0.98,-0.17,0.17,0.98,-5.78,6.72)"
       id="ellipse1363" />
    <path
       class="cls-2"
       d="m 39.67,51.53 a 8.45,8.45 0 0 1 -1.42,0.38 C 32.07,53 25.59,46.81 24.1,38.39 22.73,30.61 25.84,23.23 31.35,21.22 a 8.45,8.45 0 0 1 1.42,-0.38 10.11,10.11 0 0 1 8.42,2.77 18.53,18.53 0 0 1 5.73,10.75 c 1.37,7.79 -1.75,15.17 -7.25,17.17 z"
       id="path1365" />
    <ellipse
       class="cls-1"
       cx="114.49"
       cy="36.380001"
       rx="24.219999"
       ry="19.370001"
       transform="rotate(-80,114.49217,36.373403)"
       id="ellipse1367" />
    <path
       class="cls-2"
       d="m 113.22,52 a 8.45,8.45 0 0 1 -1.46,-0.13 c -6.18,-1.09 -10.15,-9.13 -8.67,-17.55 1.37,-7.78 6.82,-13.65 12.68,-13.65 a 8.45,8.45 0 0 1 1.46,0.13 10.11,10.11 0 0 1 7,5.48 18.53,18.53 0 0 1 1.71,12.06 C 124.53,46.17 119.07,52 113.22,52 Z"
       id="path1369" />
    <path
       class="cls-3"
       d="m 27.26,100.24 c -15,-24.37 1.22,-74 24,-79 C 55.67,8.63 71.37,8.4 71.37,8.4 68.33,14.08 69,18.48 69,18.48 c 6.8,-8.2 18.28,-7 18.28,-7 -0.7,7.58 16.64,8.67 27.07,20.74 10.43,12.07 19.1,28.48 12.19,59.53 -3,-6 -6.21,-6.09 -6.21,-6.09 -0.47,23 -21.91,51.18 -38.44,55.4 0.79,-9.92 -1.76,-13.24 -3.75,-14.41 0.94,5.86 -2.71,11.6 -2.71,11.6 -30.46,-7.27 -40,-21.68 -42.34,-51.09 -5.32,7.92 -5.83,13.08 -5.83,13.08 z"
       id="path1371" />
    <ellipse
       class="cls-4"
       cx="75.459999"
       cy="105.75"
       rx="16.809999"
       ry="11"
       id="ellipse1373" />
    <path
       class="cls-5"
       d="m 119.82,64 c 0,7.65 -1.95,10.4 -8.32,17 -6.37,6.6 -15.5,13.88 -34.2,13.88 h -1.66 c -18.69,0 -27.83,-7.27 -34.2,-13.86 -6.37,-6.59 -8.32,-9.34 -8.32,-17 0,-14.77 15.12,-33.53 39.52,-33.53 0.28,0 3.55,4.09 3.83,4.1 0.28,0.01 3.53,-4.09 3.83,-4.09 24.4,0 39.52,18.76 39.52,33.5 z"
       id="path1375" />
    <path
       class="cls-6"
       d="m 102.47,91.66 c 0,11 -8.81,23.17 -26.84,12.56 -18,10.61 -26.84,-1.53 -26.84,-12.56 0,-11.03 8.81,-20 26.84,-20 18.03,0 26.84,8.96 26.84,20 z"
       id="path1377" />
    <path
       class="cls-7"
       d="m 65.44,60.72 c -0.86,4.88 -6,7.74 -11.24,6.82 C 48.96,66.62 45.09,64 46.32,57 c 0.86,-4.88 5.22,-4.9 10.43,-4 5.21,0.9 9.55,2.84 8.69,7.72 z"
       id="path1379" />
    <path
       class="cls-7"
       d="m 87.67,60.72 c 0.86,4.88 6,7.74 11.24,6.82 5.24,-0.92 9.09,-3.54 7.88,-10.54 -0.86,-4.88 -5.22,-4.9 -10.43,-4 -5.21,0.9 -9.55,2.84 -8.69,7.72 z"
       id="path1381" />
    <circle
       cx="59.400002"
       cy="59.799999"
       r="3.3399999"
       transform="rotate(-80,59.402024,59.805551)"
       id="circle1383" />
    <circle
       cx="93.709999"
       cy="59.799999"
       r="3.3399999"
       transform="rotate(-10,93.704149,59.796634)"
       id="circle1385" />
    <path
       class="cls-8"
       d="m 84.7,77.64 c 0,3.73 -5.33,9.42 -9.07,9.42 -3.74,0 -9.07,-5.68 -9.07,-9.42 0,-3.74 5.33,-4.1 9.07,-4.1 3.74,0 9.07,0.37 9.07,4.1 z"
       id="path1387" />
    <line
       class="cls-9"
       x1="75.639999"
       x2="75.639999"
       y1="104.22"
       y2="87.769997"
       id="line1389" />
    <line
       class="cls-10"
       x1="83.330002"
       x2="95.139999"
       y1="90.900002"
       y2="85.089996"
       id="line1391" />
    <line
       class="cls-10"
       x1="84.739998"
       x2="97.139999"
       y1="93.669998"
       y2="93.669998"
       id="line1393" />
    <line
       class="cls-10"
       x1="83.330002"
       x2="95.139999"
       y1="96.43"
       y2="102.24"
       id="line1395" />
    <line
       class="cls-10"
       x1="66.589996"
       x2="55.779999"
       y1="90.900002"
       y2="85.089996"
       id="line1397" />
    <line
       class="cls-10"
       x1="65.190002"
       x2="53.779999"
       y1="93.669998"
       y2="93.669998"
       id="line1399" />
    <line
       class="cls-10"
       x1="66.589996"
       x2="55.779999"
       y1="96.43"
       y2="102.24"
       id="line1401" />
  </g>
</svg>
