<?xml version="1.0" encoding="UTF-8" standalone="no"?>
<svg
   xmlns:dc="http://purl.org/dc/elements/1.1/"
   xmlns:cc="http://creativecommons.org/ns#"
   xmlns:rdf="http://www.w3.org/1999/02/22-rdf-syntax-ns#"
   xmlns:svg="http://www.w3.org/2000/svg"
   xmlns="http://www.w3.org/2000/svg"
   xmlns:sodipodi="http://sodipodi.sourceforge.net/DTD/sodipodi-0.dtd"
   xmlns:inkscape="http://www.inkscape.org/namespaces/inkscape"
   inkscape:version="1.0 (b51213c273, 2020-08-10)"
   height="50"
   width="50"
   sodipodi:docname="008.svg"
   version="1.1"
   viewBox="0 0 50 50"
   id="ART">
  <metadata
     id="metadata29">
    <rdf:RDF>
      <cc:Work
         rdf:about="">
        <dc:format>image/svg+xml</dc:format>
        <dc:type
           rdf:resource="http://purl.org/dc/dcmitype/StillImage" />
        <dc:title></dc:title>
      </cc:Work>
    </rdf:RDF>
  </metadata>
  <sodipodi:namedview
     inkscape:current-layer="ART"
     inkscape:window-maximized="1"
     inkscape:window-y="282"
     inkscape:window-x="1680"
     inkscape:cy="28.715794"
     inkscape:cx="21.291362"
     inkscape:zoom="5.2608745"
     showgrid="false"
     id="namedview27"
     inkscape:window-height="731"
     inkscape:window-width="1366"
     inkscape:pageshadow="2"
     inkscape:pageopacity="0"
     guidetolerance="10"
     gridtolerance="10"
     objecttolerance="10"
     borderopacity="1"
     bordercolor="#666666"
     pagecolor="#ffffff"
     inkscape:document-rotation="0"
     showguides="true"
     inkscape:guide-bbox="true">
    <sodipodi:guide
       position="9.5430107,22.311828"
       orientation="1,0"
       id="guide841" />
    <sodipodi:guide
       position="24.995844,42.681825"
       orientation="0,-1"
       id="guide843" />
    <sodipodi:guide
       position="40.582607,29.471094"
       orientation="1,0"
       id="guide845" />
    <sodipodi:guide
       position="26.516504,7.61161"
       orientation="0,-1"
       id="guide847" />
  </sodipodi:namedview>
  <defs
     id="defs4">
    <style
       id="style2">.cls-1,.cls-2{fill:#ffc533;}.cls-1,.cls-2,.cls-3,.cls-4{stroke:#000;}.cls-1{stroke-linecap:round;stroke-linejoin:round;}.cls-1,.cls-3{stroke-width:2px;}.cls-2,.cls-3,.cls-4{stroke-miterlimit:10;}.cls-2,.cls-4{stroke-width:4px;}.cls-3{fill:#fff;}.cls-4{fill:#ea6726;}</style>
    <style
       id="style849">.cls-1{fill:#b7b4b3;stroke-width:4px;}.cls-1,.cls-2,.cls-3,.cls-4{stroke:#000;stroke-miterlimit:10;}.cls-2{fill:#7a5342;}.cls-2,.cls-4{stroke-linecap:round;}.cls-2,.cls-3,.cls-4{stroke-width:2px;}.cls-3{fill:#c9c9c9;}.cls-4{fill:#4c3e38;}.cls-5{fill:#9b9998;}</style>
    <style
       id="style904">.cls-1,.cls-3{fill:#a0683a;}.cls-1,.cls-3,.cls-4,.cls-5,.cls-6,.cls-7{stroke:#000;}.cls-1,.cls-3,.cls-4,.cls-5,.cls-6{stroke-miterlimit:10;}.cls-1,.cls-5,.cls-7{stroke-width:2px;}.cls-2{fill:#70411d;}.cls-3,.cls-4{stroke-width:4px;}.cls-4{fill:#c48a51;}.cls-5{fill:#fff;}.cls-6{fill:#e29149;stroke-width:3px;}.cls-7{fill:none;stroke-linecap:round;stroke-linejoin:round;}</style>
    <style
       id="style973">.cls-1,.cls-2{fill:#91592c;}.cls-1,.cls-4,.cls-5,.cls-6,.cls-7{stroke:#000;}.cls-1,.cls-4,.cls-6,.cls-7{stroke-miterlimit:10;}.cls-1,.cls-6{stroke-width:4px;}.cls-3{fill:#683023;}.cls-4{fill:#281614;}.cls-4,.cls-5,.cls-7{stroke-width:2px;}.cls-5{fill:#6d3722;stroke-miterlimit:20;}.cls-6{fill:#5e3730;}.cls-7{fill:#fff;}</style>
    <style
       id="style1062">.cls-1,.cls-4{fill:#acb3ba;}.cls-1,.cls-3,.cls-5,.cls-6,.cls-7{stroke:#000;}.cls-1,.cls-3,.cls-5,.cls-7{stroke-miterlimit:10;}.cls-1,.cls-3{stroke-width:4px;}.cls-2{fill:#72767a;}.cls-3{fill:#d1d1d1;}.cls-5{fill:#fff;}.cls-6{fill:none;stroke-linecap:round;stroke-linejoin:round;}.cls-7{fill:#6b6e70;stroke-width:2px;}</style>
    <style
       id="style1136">.cls-1{fill:#9ea9ac;}.cls-1,.cls-3,.cls-4,.cls-5,.cls-6{stroke:#000;}.cls-1,.cls-3,.cls-4{stroke-miterlimit:10;}.cls-1,.cls-3,.cls-5{stroke-width:4px;}.cls-2{fill:#5e6c70;}.cls-3,.cls-5{fill:#b4bfc2;}.cls-4{fill:#fceebb;stroke-width:2px;}.cls-5,.cls-6{stroke-linecap:round;stroke-linejoin:round;}.cls-6{fill:#fcfcfc;stroke-width:1.89px;}</style>
    <style
       id="style1211">.cls-1{fill:#ccc;stroke-linejoin:round;stroke-width:4px;}.cls-1,.cls-2,.cls-3{stroke:#000;}.cls-2{fill:#bf7d47;stroke-width:3px;}.cls-2,.cls-3{stroke-linecap:round;stroke-miterlimit:10;}.cls-3{fill:#eddbae;}.cls-4{fill:#e2a350;}</style>
  </defs>
  <rect
     ry="25"
     rx="25"
     y="0"
     x="0"
     height="50"
     width="50"
     id="rect42"
     style="fill:#e6e6e6;fill-rule:evenodd;stroke-width:1.01205" />
  <g
     id="g1252"
     transform="matrix(0.2492512,0,0,0.2492512,6.30616,6.0880652)">
    <path
       class="cls-1"
       d="m 98.15,144.75 c 0,0 -6,-50.51 -1.27,-61.09 H 53.12 c 4.77,10.58 -1.27,61.09 -1.27,61.09"
       id="path1217" />
    <path
       class="cls-1"
       d="m 119.31,68.88 c 0,19.55 -19.84,31.71 -44.31,31.71 -24.47,0 -44.31,-12.16 -44.31,-31.71 0,-15.09 8.17,-21.3 11.58,-30.53 C 45.91,28.48 55.42,7 75,7 c 19.58,0 29.09,21.47 32.73,31.34 3.4,9.24 11.58,15.45 11.58,30.54 z"
       id="path1219" />
    <path
       class="cls-2"
       d="m 75,50 c 3.81,0 8.15,-3.65 11.16,-1.38 1.47,1.11 1.41,14.19 4.57,24.55 C 94,84 96.93,93.5 96.77,96.4 96.44,102.06 81.47,119.13 75,119.13 68.53,119.13 53.56,102.06 53.23,96.4 53.06,93.5 55.95,84.01 59.23,73.14 62.39,62.78 62.33,49.7 63.8,48.59 66.85,46.32 71.19,50 75,50 Z"
       data-name="&lt;Path&gt;"
       id="_Path_" />
    <path
       class="cls-3"
       d="m 101.38,44.66 c -1.47,3.83 -3.93,4.57 -7,4.25 -2.85,-0.3 -5,-2 -3.5,-5.82 1.5,-3.82 5.38,-7.53 8,-6.51 2.62,1.02 3.97,4.26 2.5,8.08 z"
       id="path1222" />
    <ellipse
       cx="95.760002"
       cy="43.650002"
       rx="2.3299999"
       ry="4"
       id="ellipse1224" />
    <path
       class="cls-3"
       d="m 48.62,44.66 c 1.47,3.83 3.93,4.57 7,4.25 2.85,-0.3 5,-2 3.5,-5.82 -1.5,-3.82 -5.38,-7.53 -8,-6.51 -2.62,1.02 -3.97,4.26 -2.5,8.08 z"
       id="path1226" />
    <ellipse
       cx="54.240002"
       cy="43.650002"
       rx="2.3299999"
       ry="4"
       id="ellipse1228" />
    <path
       d="m 68.25,70.51 c -0.62,2.19 -0.56,4.08 0.13,4.23 0.69,0.15 1.76,-1.5 2.38,-3.69 0.62,-2.19 0.56,-4.08 -0.13,-4.23 -0.69,-0.15 -1.76,1.5 -2.38,3.69 z"
       id="path1230" />
    <path
       d="m 81.75,70.51 c 0.62,2.19 0.56,4.08 -0.13,4.23 -0.69,0.15 -1.76,-1.5 -2.38,-3.69 -0.62,-2.19 -0.56,-4.08 0.13,-4.23 0.69,-0.15 1.76,1.5 2.38,3.69 z"
       id="path1232" />
    <path
       class="cls-4"
       d="m 89.42,106.19 c -4.77,5.71 -11.19,11.44 -14.42,11.44 -3.23,0 -9.65,-5.73 -14.42,-11.44 a 19.7,19.7 0 0 1 28.84,0 z"
       id="path1234" />
  </g>
</svg>
