<?xml version="1.0" encoding="UTF-8" standalone="no"?>
<svg
   xmlns:dc="http://purl.org/dc/elements/1.1/"
   xmlns:cc="http://creativecommons.org/ns#"
   xmlns:rdf="http://www.w3.org/1999/02/22-rdf-syntax-ns#"
   xmlns:svg="http://www.w3.org/2000/svg"
   xmlns="http://www.w3.org/2000/svg"
   xmlns:sodipodi="http://sodipodi.sourceforge.net/DTD/sodipodi-0.dtd"
   xmlns:inkscape="http://www.inkscape.org/namespaces/inkscape"
   inkscape:version="1.0 (b51213c273, 2020-08-10)"
   height="50"
   width="50"
   sodipodi:docname="004.svg"
   version="1.1"
   viewBox="0 0 50 50"
   id="ART">
  <metadata
     id="metadata29">
    <rdf:RDF>
      <cc:Work
         rdf:about="">
        <dc:format>image/svg+xml</dc:format>
        <dc:type
           rdf:resource="http://purl.org/dc/dcmitype/StillImage" />
        <dc:title></dc:title>
      </cc:Work>
    </rdf:RDF>
  </metadata>
  <sodipodi:namedview
     inkscape:current-layer="ART"
     inkscape:window-maximized="1"
     inkscape:window-y="282"
     inkscape:window-x="1680"
     inkscape:cy="20.693193"
     inkscape:cx="0.17916216"
     inkscape:zoom="5.2608745"
     showgrid="false"
     id="namedview27"
     inkscape:window-height="731"
     inkscape:window-width="1366"
     inkscape:pageshadow="2"
     inkscape:pageopacity="0"
     guidetolerance="10"
     gridtolerance="10"
     objecttolerance="10"
     borderopacity="1"
     bordercolor="#666666"
     pagecolor="#ffffff"
     inkscape:document-rotation="0"
     showguides="true"
     inkscape:guide-bbox="true">
    <sodipodi:guide
       position="9.5430107,22.311828"
       orientation="1,0"
       id="guide841" />
    <sodipodi:guide
       position="24.995844,42.681825"
       orientation="0,-1"
       id="guide843" />
    <sodipodi:guide
       position="40.582607,29.471094"
       orientation="1,0"
       id="guide845" />
    <sodipodi:guide
       position="26.516504,7.61161"
       orientation="0,-1"
       id="guide847" />
  </sodipodi:namedview>
  <defs
     id="defs4">
    <style
       id="style2">.cls-1,.cls-2{fill:#ffc533;}.cls-1,.cls-2,.cls-3,.cls-4{stroke:#000;}.cls-1{stroke-linecap:round;stroke-linejoin:round;}.cls-1,.cls-3{stroke-width:2px;}.cls-2,.cls-3,.cls-4{stroke-miterlimit:10;}.cls-2,.cls-4{stroke-width:4px;}.cls-3{fill:#fff;}.cls-4{fill:#ea6726;}</style>
    <style
       id="style849">.cls-1{fill:#b7b4b3;stroke-width:4px;}.cls-1,.cls-2,.cls-3,.cls-4{stroke:#000;stroke-miterlimit:10;}.cls-2{fill:#7a5342;}.cls-2,.cls-4{stroke-linecap:round;}.cls-2,.cls-3,.cls-4{stroke-width:2px;}.cls-3{fill:#c9c9c9;}.cls-4{fill:#4c3e38;}.cls-5{fill:#9b9998;}</style>
    <style
       id="style904">.cls-1,.cls-3{fill:#a0683a;}.cls-1,.cls-3,.cls-4,.cls-5,.cls-6,.cls-7{stroke:#000;}.cls-1,.cls-3,.cls-4,.cls-5,.cls-6{stroke-miterlimit:10;}.cls-1,.cls-5,.cls-7{stroke-width:2px;}.cls-2{fill:#70411d;}.cls-3,.cls-4{stroke-width:4px;}.cls-4{fill:#c48a51;}.cls-5{fill:#fff;}.cls-6{fill:#e29149;stroke-width:3px;}.cls-7{fill:none;stroke-linecap:round;stroke-linejoin:round;}</style>
  </defs>
  <rect
     ry="25"
     rx="25"
     y="0"
     x="0"
     height="50"
     width="50"
     id="rect42"
     style="fill:#e6e6e6;fill-rule:evenodd;stroke-width:1.01205" />
  <g
     id="g953"
     transform="matrix(0.23903379,0,0,0.23903379,7.0724658,7.0724658)">
    <path
       class="cls-1"
       d="m 102.28,106.06 c 0,20 -4.59,39.44 -26.81,39.44 -22.22,0 -26.81,-19.4 -26.81,-39.44 0,-20.04 12,-2.13 26.81,-2.13 14.81,0 26.81,-17.93 26.81,2.13 z"
       data-name="&lt;Path&gt;"
       id="_Path_-7" />
    <circle
       class="cls-2"
       cx="75.480003"
       cy="119.45"
       r="21.23"
       id="circle911" />
    <path
       class="cls-3"
       d="m 109.06,30.65 c 7.39,-13 19.34,-21.28 26.38,-21.1 3.63,0.09 2,7.32 -0.15,16.63 -2,8.74 -6.76,19.29 -19,28.56 C 91,73.9 109.06,30.65 109.06,30.65 Z"
       id="path913" />
    <path
       class="cls-3"
       d="M 40.94,30.65 C 33.55,17.65 21.6,9.37 14.56,9.55 c -3.63,0.09 -2,7.32 0.15,16.63 2,8.74 6.76,19.29 19,28.56 C 59,73.9 40.94,30.65 40.94,30.65 Z"
       id="path915" />
    <path
       class="cls-4"
       d="m 116.91,95.31 c -7.07,19.7 -25.29,28.56 -41.32,28.62 H 75.36 C 59.36,123.87 41.11,115 34.04,95.31 29.23,81.9 29.84,56.31 29.84,44.8 29.84,22.64 50.2,5.52 75.36,5.5 h 0.23 c 25.15,0 45.52,17.14 45.52,39.3 0,11.52 0.61,37.1 -4.2,50.51 z"
       id="path917" />
    <path
       class="cls-5"
       d="m 127.17,60.12 c 0,7 -4.33,13.71 -11.52,13.7 -7.19,-0.01 -13.79,-1.72 -13.79,-8.71 0,-6.99 6,-13.52 12.65,-14.65 6.9,-1.16 12.66,2.67 12.66,9.66 z"
       id="path919" />
    <path
       d="m 113.52,69 c -1.56,0 -6.67,-0.37 -6.67,-5.13 0,-3.8 3.62,-6 7.18,-6.71 a 5.12,5.12 0 0 1 6.15,5.17 6.67,6.67 0 0 1 -6.66,6.67 z"
       id="path921" />
    <path
       class="cls-6"
       d="m 96.17,82.83 c 0,3.25 -11.3,13.45 -20.7,13.45 -9.4,0 -20.7,-10.2 -20.7,-13.45 0,-7.43 11.3,-27.08 20.7,-27.08 9.4,0 20.7,19.65 20.7,27.08 z"
       data-name="&lt;Path&gt;"
       id="_Path_2" />
    <path
       class="cls-5"
       d="m 23.78,60.12 c 0,7 4.33,13.6 11.52,13.6 7.19,0 13.79,-1.62 13.79,-8.61 0,-6.99 -6,-13.52 -12.65,-14.65 -6.9,-1.16 -12.66,2.67 -12.66,9.66 z"
       id="path924" />
    <path
       class="cls-2"
       d="m 94.67,82.83 c -0.06,2 -10,12 -19.19,12 -9.19,0 -19.14,-9.93 -19.2,-12 a 15.39,15.39 0 0 1 1,-4.62 c 6.52,2.55 14.15,8 18.24,13.49 4.09,-5.49 11.71,-10.93 18.23,-13.49 a 15.39,15.39 0 0 1 0.92,4.62 z"
       id="path926" />
    <path
       d="m 37.43,69 c 1.56,0 6.67,-0.37 6.67,-5.13 0,-3.8 -3.62,-6 -7.18,-6.71 a 5.12,5.12 0 0 0 -6.15,5.17 6.67,6.67 0 0 0 6.66,6.67 z"
       id="path928" />
    <path
       class="cls-6"
       d="m 106.85,110.55 c 0,11.18 -14.82,37.61 -31.38,21.06 -16.55,16.55 -31.38,-9.88 -31.38,-21.06 q 0,-0.7 0,-1.39 C 44.84,92.72 57.51,78 75.47,96 c 17.56,-17.56 30.68,-4.2 31.35,13.15 q 0.03,0.71 0.03,1.4 z"
       id="path930" />
    <polyline
       class="cls-7"
       points="75.47 96.01 75.48 129.82 75.48 97.64"
       id="polyline932" />
  </g>
</svg>
