<?xml version="1.0" encoding="UTF-8" standalone="no"?>
<svg
   xmlns:dc="http://purl.org/dc/elements/1.1/"
   xmlns:cc="http://creativecommons.org/ns#"
   xmlns:rdf="http://www.w3.org/1999/02/22-rdf-syntax-ns#"
   xmlns:svg="http://www.w3.org/2000/svg"
   xmlns="http://www.w3.org/2000/svg"
   xmlns:sodipodi="http://sodipodi.sourceforge.net/DTD/sodipodi-0.dtd"
   xmlns:inkscape="http://www.inkscape.org/namespaces/inkscape"
   inkscape:version="1.0 (b51213c273, 2020-08-10)"
   height="50"
   width="50"
   sodipodi:docname="005.svg"
   version="1.1"
   viewBox="0 0 50 50"
   id="ART">
  <metadata
     id="metadata29">
    <rdf:RDF>
      <cc:Work
         rdf:about="">
        <dc:format>image/svg+xml</dc:format>
        <dc:type
           rdf:resource="http://purl.org/dc/dcmitype/StillImage" />
        <dc:title></dc:title>
      </cc:Work>
    </rdf:RDF>
  </metadata>
  <sodipodi:namedview
     inkscape:current-layer="ART"
     inkscape:window-maximized="1"
     inkscape:window-y="282"
     inkscape:window-x="1680"
     inkscape:cy="20.693193"
     inkscape:cx="0.17916216"
     inkscape:zoom="5.2608745"
     showgrid="false"
     id="namedview27"
     inkscape:window-height="731"
     inkscape:window-width="1366"
     inkscape:pageshadow="2"
     inkscape:pageopacity="0"
     guidetolerance="10"
     gridtolerance="10"
     objecttolerance="10"
     borderopacity="1"
     bordercolor="#666666"
     pagecolor="#ffffff"
     inkscape:document-rotation="0"
     showguides="true"
     inkscape:guide-bbox="true">
    <sodipodi:guide
       position="9.5430107,22.311828"
       orientation="1,0"
       id="guide841" />
    <sodipodi:guide
       position="24.995844,42.681825"
       orientation="0,-1"
       id="guide843" />
    <sodipodi:guide
       position="40.582607,29.471094"
       orientation="1,0"
       id="guide845" />
    <sodipodi:guide
       position="26.516504,7.61161"
       orientation="0,-1"
       id="guide847" />
  </sodipodi:namedview>
  <defs
     id="defs4">
    <style
       id="style2">.cls-1,.cls-2{fill:#ffc533;}.cls-1,.cls-2,.cls-3,.cls-4{stroke:#000;}.cls-1{stroke-linecap:round;stroke-linejoin:round;}.cls-1,.cls-3{stroke-width:2px;}.cls-2,.cls-3,.cls-4{stroke-miterlimit:10;}.cls-2,.cls-4{stroke-width:4px;}.cls-3{fill:#fff;}.cls-4{fill:#ea6726;}</style>
    <style
       id="style849">.cls-1{fill:#b7b4b3;stroke-width:4px;}.cls-1,.cls-2,.cls-3,.cls-4{stroke:#000;stroke-miterlimit:10;}.cls-2{fill:#7a5342;}.cls-2,.cls-4{stroke-linecap:round;}.cls-2,.cls-3,.cls-4{stroke-width:2px;}.cls-3{fill:#c9c9c9;}.cls-4{fill:#4c3e38;}.cls-5{fill:#9b9998;}</style>
    <style
       id="style904">.cls-1,.cls-3{fill:#a0683a;}.cls-1,.cls-3,.cls-4,.cls-5,.cls-6,.cls-7{stroke:#000;}.cls-1,.cls-3,.cls-4,.cls-5,.cls-6{stroke-miterlimit:10;}.cls-1,.cls-5,.cls-7{stroke-width:2px;}.cls-2{fill:#70411d;}.cls-3,.cls-4{stroke-width:4px;}.cls-4{fill:#c48a51;}.cls-5{fill:#fff;}.cls-6{fill:#e29149;stroke-width:3px;}.cls-7{fill:none;stroke-linecap:round;stroke-linejoin:round;}</style>
    <style
       id="style973">.cls-1,.cls-2{fill:#91592c;}.cls-1,.cls-4,.cls-5,.cls-6,.cls-7{stroke:#000;}.cls-1,.cls-4,.cls-6,.cls-7{stroke-miterlimit:10;}.cls-1,.cls-6{stroke-width:4px;}.cls-3{fill:#683023;}.cls-4{fill:#281614;}.cls-4,.cls-5,.cls-7{stroke-width:2px;}.cls-5{fill:#6d3722;stroke-miterlimit:20;}.cls-6{fill:#5e3730;}.cls-7{fill:#fff;}</style>
  </defs>
  <rect
     ry="25"
     rx="25"
     y="0"
     x="0"
     height="50"
     width="50"
     id="rect42"
     style="fill:#e6e6e6;fill-rule:evenodd;stroke-width:1.01205" />
  <g
     id="g1042"
     transform="matrix(0.23334807,0,0,0.23334807,7.4988947,7.4650559)">
    <path
       class="cls-1"
       d="M 95.88,56.62 C 90.71,37.34 96.31,9.73 112.16,5.82 126.95,30 108.8,45.68 95.88,56.62 Z"
       data-name="&lt;Path&gt;"
       id="_Path_" />
    <path
       class="cls-2"
       d="m 104.94,45.68 c 3.38,-10.35 6.65,-23.42 6.06,-37.4 l 0.24,-0.09 c 9.18,16.16 2.69,28.13 -6.3,37.49 z"
       id="path980" />
    <path
       class="cls-1"
       d="M 54.12,56.62 C 59.29,37.34 53.69,9.73 37.84,5.82 23.05,30 41.2,45.68 54.12,56.62 Z"
       data-name="&lt;Path&gt;"
       id="_Path_2-3" />
    <path
       class="cls-2"
       d="M 45.06,45.68 C 36.06,36.32 29.58,24.35 38.76,8.19 L 39,8.28 c -0.59,13.98 2.68,27.05 6.06,37.4 z"
       id="path983" />
    <path
       class="cls-3"
       d="M 45.06,45.68 C 36.06,36.32 29.58,24.35 38.76,8.19 L 39,8.28 c -0.59,13.98 2.68,27.05 6.06,37.4 z"
       id="path985" />
    <path
       class="cls-3"
       d="m 104.94,45.68 c 3.38,-10.35 6.65,-23.42 6.06,-37.4 l 0.24,-0.09 c 9.18,16.16 2.69,28.13 -6.3,37.49 z"
       id="path987" />
    <path
       class="cls-1"
       d="m 110.09,65.15 c 0,11.09 -7.61,29 -8.3,42.25 C 100.91,124.62 84.66,138 75,138 65.34,138 49.09,124.62 48.21,107.4 47.52,94.14 39.91,76.24 39.91,65.15 39.91,46 55.62,24.72 75,24.72 c 19.38,0 35.09,21.28 35.09,40.43 z"
       data-name="&lt;Path&gt;"
       id="_Path_3" />
    <path
       class="cls-4"
       d="m 94.94,127.3 c 0,9.92 -9.58,18.17 -19.94,18.17 -10.36,0 -19.94,-8.26 -19.94,-18.17 0,-9.91 9.58,-23.5 19.94,-23.5 10.36,0 19.94,13.58 19.94,23.5 z"
       id="path990" />
    <path
       class="cls-5"
       d="m 75,21.22 a 28.07,28.07 0 0 1 9.41,1.47 c 8.73,3.79 6.86,13.85 4.91,19.41 C 79.24,37 77.06,38.63 83,50.76 59.5,47.76 53.66,27.83 64.86,23.03 67.42,21.93 69.75,21.22 75,21.22 Z"
       id="path992" />
    <path
       class="cls-3"
       d="m 108,67.16 c -0.38,5.06 -2,11.37 -3.8,18 -2,7.55 -4.06,15.36 -4.42,22.13 -0.44,8.64 -5,16.06 -10.34,21.2 2.08,-21.93 9.38,-52.18 18.56,-61.33 z"
       id="path994" />
    <path
       class="cls-3"
       d="m 60.55,128.5 c -5.37,-5.14 -9.9,-12.56 -10.34,-21.2 -0.36,-6.77 -2.42,-14.58 -4.42,-22.12 -1.75,-6.65 -3.42,-13 -3.8,-18 9.19,9.13 16.49,39.38 18.56,61.32 z"
       id="path996" />
    <path
       class="cls-3"
       d="m 42,67.16 c 9.19,9.15 16.49,39.4 18.56,61.34 -5.37,-5.14 -9.9,-12.56 -10.34,-21.2 C 49.86,100.53 47.8,92.72 45.8,85.18 44,78.53 42.37,72.22 42,67.16 Z"
       id="path998" />
    <path
       class="cls-3"
       d="m 108,67.16 c -0.38,5.06 -2,11.37 -3.8,18 -2,7.55 -4.06,15.36 -4.42,22.13 -0.44,8.64 -5,16.06 -10.34,21.2 2.08,-21.93 9.38,-52.18 18.56,-61.33 z"
       id="path1000" />
    <path
       class="cls-6"
       d="m 97.26,115.9 c 0,10.77 -10.7,22.82 -22.26,22.82 -11.56,0 -22.26,-12 -22.26,-22.82 0,-10.82 10.7,-21 22.26,-21 11.56,0 22.26,10.23 22.26,21 z"
       id="path1002" />
    <ellipse
       cx="65.68"
       cy="110.29"
       rx="4.0300002"
       ry="5.8000002"
       transform="rotate(-15,65.688928,110.30215)"
       id="ellipse1004" />
    <ellipse
       cx="84.32"
       cy="110.29"
       rx="5.8000002"
       ry="4.0300002"
       transform="rotate(-75,84.32819,110.29051)"
       id="ellipse1006" />
    <path
       class="cls-7"
       d="m 106.11,68.48 c 1.25,4.65 -0.44,9.9 -5.23,11.18 -4.79,1.28 -9.49,1.34 -10.74,-3.34 -1.25,-4.68 1.94,-8.67 6.19,-10.61 4.25,-1.94 8.53,-1.89 9.78,2.77 z"
       id="path1008" />
    <path
       d="m 98.3,77.62 c -1.13,0.3 -4.89,1 -5.74,-2.12 -0.68,-2.53 1.54,-4.73 4,-5.86 a 3.74,3.74 0 0 1 5.38,2.25 4.82,4.82 0 0 1 -3.64,5.73 z"
       id="path1010" />
    <path
       class="cls-7"
       d="m 43.72,68.48 c -1.25,4.65 0.44,9.9 5.23,11.18 4.79,1.28 9.49,1.34 10.74,-3.34 1.25,-4.68 -1.94,-8.67 -6.19,-10.61 -4.25,-1.94 -8.5,-1.89 -9.78,2.77 z"
       id="path1012" />
    <path
       d="m 51.53,77.62 c 1.13,0.3 4.89,1 5.74,-2.12 0.68,-2.53 -1.54,-4.73 -4,-5.86 a 3.74,3.74 0 0 0 -5.38,2.25 4.82,4.82 0 0 0 3.64,5.73 z"
       id="path1014" />
  </g>
</svg>
