<?xml version="1.0" encoding="UTF-8" standalone="no"?>
<svg
   xmlns:dc="http://purl.org/dc/elements/1.1/"
   xmlns:cc="http://creativecommons.org/ns#"
   xmlns:rdf="http://www.w3.org/1999/02/22-rdf-syntax-ns#"
   xmlns:svg="http://www.w3.org/2000/svg"
   xmlns="http://www.w3.org/2000/svg"
   xmlns:sodipodi="http://sodipodi.sourceforge.net/DTD/sodipodi-0.dtd"
   xmlns:inkscape="http://www.inkscape.org/namespaces/inkscape"
   inkscape:version="1.0 (b51213c273, 2020-08-10)"
   height="50"
   width="50"
   sodipodi:docname="014.svg"
   version="1.1"
   viewBox="0 0 50 50"
   id="ART">
  <metadata
     id="metadata29">
    <rdf:RDF>
      <cc:Work
         rdf:about="">
        <dc:format>image/svg+xml</dc:format>
        <dc:type
           rdf:resource="http://purl.org/dc/dcmitype/StillImage" />
        <dc:title></dc:title>
      </cc:Work>
    </rdf:RDF>
  </metadata>
  <sodipodi:namedview
     inkscape:current-layer="ART"
     inkscape:window-maximized="1"
     inkscape:window-y="282"
     inkscape:window-x="1680"
     inkscape:cy="28.715794"
     inkscape:cx="21.291362"
     inkscape:zoom="5.2608745"
     showgrid="false"
     id="namedview27"
     inkscape:window-height="731"
     inkscape:window-width="1366"
     inkscape:pageshadow="2"
     inkscape:pageopacity="0"
     guidetolerance="10"
     gridtolerance="10"
     objecttolerance="10"
     borderopacity="1"
     bordercolor="#666666"
     pagecolor="#ffffff"
     inkscape:document-rotation="0"
     showguides="true"
     inkscape:guide-bbox="true">
    <sodipodi:guide
       position="9.5430107,22.311828"
       orientation="1,0"
       id="guide841" />
    <sodipodi:guide
       position="24.995844,42.681825"
       orientation="0,-1"
       id="guide843" />
    <sodipodi:guide
       position="40.582607,29.471094"
       orientation="1,0"
       id="guide845" />
    <sodipodi:guide
       position="26.516504,7.61161"
       orientation="0,-1"
       id="guide847" />
  </sodipodi:namedview>
  <defs
     id="defs4">
    <style
       id="style2">.cls-1,.cls-2{fill:#ffc533;}.cls-1,.cls-2,.cls-3,.cls-4{stroke:#000;}.cls-1{stroke-linecap:round;stroke-linejoin:round;}.cls-1,.cls-3{stroke-width:2px;}.cls-2,.cls-3,.cls-4{stroke-miterlimit:10;}.cls-2,.cls-4{stroke-width:4px;}.cls-3{fill:#fff;}.cls-4{fill:#ea6726;}</style>
    <style
       id="style849">.cls-1{fill:#b7b4b3;stroke-width:4px;}.cls-1,.cls-2,.cls-3,.cls-4{stroke:#000;stroke-miterlimit:10;}.cls-2{fill:#7a5342;}.cls-2,.cls-4{stroke-linecap:round;}.cls-2,.cls-3,.cls-4{stroke-width:2px;}.cls-3{fill:#c9c9c9;}.cls-4{fill:#4c3e38;}.cls-5{fill:#9b9998;}</style>
    <style
       id="style904">.cls-1,.cls-3{fill:#a0683a;}.cls-1,.cls-3,.cls-4,.cls-5,.cls-6,.cls-7{stroke:#000;}.cls-1,.cls-3,.cls-4,.cls-5,.cls-6{stroke-miterlimit:10;}.cls-1,.cls-5,.cls-7{stroke-width:2px;}.cls-2{fill:#70411d;}.cls-3,.cls-4{stroke-width:4px;}.cls-4{fill:#c48a51;}.cls-5{fill:#fff;}.cls-6{fill:#e29149;stroke-width:3px;}.cls-7{fill:none;stroke-linecap:round;stroke-linejoin:round;}</style>
    <style
       id="style973">.cls-1,.cls-2{fill:#91592c;}.cls-1,.cls-4,.cls-5,.cls-6,.cls-7{stroke:#000;}.cls-1,.cls-4,.cls-6,.cls-7{stroke-miterlimit:10;}.cls-1,.cls-6{stroke-width:4px;}.cls-3{fill:#683023;}.cls-4{fill:#281614;}.cls-4,.cls-5,.cls-7{stroke-width:2px;}.cls-5{fill:#6d3722;stroke-miterlimit:20;}.cls-6{fill:#5e3730;}.cls-7{fill:#fff;}</style>
    <style
       id="style1062">.cls-1,.cls-4{fill:#acb3ba;}.cls-1,.cls-3,.cls-5,.cls-6,.cls-7{stroke:#000;}.cls-1,.cls-3,.cls-5,.cls-7{stroke-miterlimit:10;}.cls-1,.cls-3{stroke-width:4px;}.cls-2{fill:#72767a;}.cls-3{fill:#d1d1d1;}.cls-5{fill:#fff;}.cls-6{fill:none;stroke-linecap:round;stroke-linejoin:round;}.cls-7{fill:#6b6e70;stroke-width:2px;}</style>
    <style
       id="style1136">.cls-1{fill:#9ea9ac;}.cls-1,.cls-3,.cls-4,.cls-5,.cls-6{stroke:#000;}.cls-1,.cls-3,.cls-4{stroke-miterlimit:10;}.cls-1,.cls-3,.cls-5{stroke-width:4px;}.cls-2{fill:#5e6c70;}.cls-3,.cls-5{fill:#b4bfc2;}.cls-4{fill:#fceebb;stroke-width:2px;}.cls-5,.cls-6{stroke-linecap:round;stroke-linejoin:round;}.cls-6{fill:#fcfcfc;stroke-width:1.89px;}</style>
    <style
       id="style1211">.cls-1{fill:#ccc;stroke-linejoin:round;stroke-width:4px;}.cls-1,.cls-2,.cls-3{stroke:#000;}.cls-2{fill:#bf7d47;stroke-width:3px;}.cls-2,.cls-3{stroke-linecap:round;stroke-miterlimit:10;}.cls-3{fill:#eddbae;}.cls-4{fill:#e2a350;}</style>
    <style
       id="style1272">.cls-1,.cls-2{fill:#444;}.cls-1,.cls-4,.cls-5,.cls-6,.cls-8{stroke:#000;stroke-miterlimit:10;}.cls-1{stroke-width:4px;}.cls-3{fill:#bcbcbc;}.cls-4,.cls-6{fill:#333;}.cls-4,.cls-5,.cls-6,.cls-8{stroke-width:2px;}.cls-5{fill:none;}.cls-6{stroke-linecap:round;}.cls-7{fill:#7f7f7f;}.cls-8{fill:#fff797;}</style>
    <style
       id="style1357">.cls-1{fill:#b26f2d;}.cls-1,.cls-10,.cls-3,.cls-4,.cls-6,.cls-7,.cls-9{stroke:#000;stroke-miterlimit:10;}.cls-1,.cls-3{stroke-width:4px;}.cls-2{fill:#d8985d;}.cls-3{fill:#dd852f;}.cls-4,.cls-5{fill:#f2c497;}.cls-4,.cls-6,.cls-7,.cls-9{stroke-width:2px;}.cls-6{fill:#efdfc4;}.cls-7{fill:#fff;}.cls-8{fill:#4c331c;}.cls-10,.cls-9{fill:none;}.cls-9{stroke-linecap:round;}</style>
    <style
       id="style1449">.cls-1{fill:#40586a;}.cls-2{fill:#d3dae0;stroke-width:4px;}.cls-2,.cls-3,.cls-5,.cls-6,.cls-7{stroke:#000;}.cls-2,.cls-3,.cls-7{stroke-miterlimit:10;}.cls-3,.cls-6{fill:none;}.cls-4{fill:#8095a0;}.cls-5{fill:#001723;}.cls-5,.cls-6{stroke-linecap:round;stroke-linejoin:round;}.cls-5,.cls-7{stroke-width:2px;}.cls-6{stroke-width:3px;}.cls-7{fill:#e8e6ac;}</style>
    <style
       id="style1522">.cls-1,.cls-2,.cls-3{fill:#a7b6c4;}.cls-1,.cls-2,.cls-3,.cls-4,.cls-5,.cls-6{stroke:#000;}.cls-1{stroke-linecap:round;stroke-linejoin:round;}.cls-1,.cls-2,.cls-5,.cls-6{stroke-width:2px;}.cls-2,.cls-3,.cls-4,.cls-5,.cls-6{stroke-miterlimit:10;}.cls-3{stroke-width:3px;}.cls-4{fill:#6d839b;stroke-width:4px;}.cls-5{fill:#44372e;}.cls-6{fill:#fff;}.cls-7{fill:#384856;}</style>
    <style
       id="style1586">.cls-1{fill:#0980aa;}.cls-1,.cls-3,.cls-4{stroke:#000;stroke-linecap:round;stroke-miterlimit:10;}.cls-1,.cls-3{stroke-width:4px;}.cls-2{fill:#083a47;}.cls-3{fill:#73bbd8;}.cls-4{fill:#86d9e2;stroke-width:2px;}.cls-5{fill:#0d5f75;}</style>
    <style
       id="style1666">.cls-1{fill:#edb340;stroke-miterlimit:40;stroke-width:4px;}.cls-1,.cls-3,.cls-4,.cls-7{stroke:#000;}.cls-2{fill:#d3d3d3;}.cls-3{fill:#ffe7bd;}.cls-3,.cls-7{stroke-miterlimit:10;}.cls-3,.cls-4,.cls-7{stroke-width:2px;}.cls-4,.cls-5{fill:#020100;}.cls-4{stroke-linecap:round;stroke-linejoin:round;}.cls-6{fill:#c45e35;}.cls-7{fill:#dd8e2f;}.cls-8{fill:#d6512d;}</style>
  </defs>
  <rect
     ry="25"
     rx="25"
     y="0"
     x="0"
     height="50"
     width="50"
     id="rect42"
     style="fill:#e6e6e6;fill-rule:evenodd;stroke-width:1.01205" />
  <g
     id="g1730"
     transform="matrix(0.22625617,0,0,0.22625617,8.0296559,8.0315688)">
    <path
       class="cls-1"
       d="m 137.43,81.5 c 0,0 5.31,23.07 1.13,32.59 l -3.32,-4.9 c 0,0 -7.79,18.89 -18.75,19.18 l -0.29,-3.46 a 82.89,82.89 0 0 1 -82.4,0 l -0.29,3.46 c -11,-0.29 -18.75,-19.18 -18.75,-19.18 l -3.31,4.9 c -4.18,-9.52 1.13,-32.59 1.13,-32.59 0,0 0.31,-1.16 -4.74,0 A 97.52,97.52 0 0 1 21.67,47.29 C 17,36.83 14,17.29 16.5,14.77 c 2.28,-2.29 24.29,2 32.92,5.55 7.17,-4 13.65,-6.2 21,-6.2 0.87,0 3.81,3.57 4.63,3.57 0.82,0 3.76,-3.57 4.63,-3.57 7.3,0 13.78,2.22 21,6.2 8.64,-3.57 30.62,-7.84 32.91,-5.55 2.54,2.53 -0.48,22.06 -5.16,32.52 a 97.51,97.51 0 0 1 13.74,34.21 c -5.05,-1.16 -4.74,0 -4.74,0 z"
       data-name="&lt;Path&gt;"
       id="_Path_" />
    <path
       class="cls-2"
       d="m 138.7,79 c 0.27,0 0.58,0 0.9,0 -0.21,-0.94 -0.44,-1.87 -0.69,-2.8 -0.1,-0.41 -0.21,-0.81 -0.32,-1.22 -0.18,-0.67 -0.37,-1.33 -0.57,-2 -0.2,-0.67 -0.41,-1.33 -0.62,-2 -0.16,-0.5 -0.33,-1 -0.5,-1.5 -0.17,-0.5 -0.4,-1.16 -0.61,-1.74 l -0.07,-0.19 c -0.18,-0.51 -0.38,-1 -0.57,-1.52 -0.06,-0.15 -0.11,-0.29 -0.17,-0.43 -0.21,-0.55 -0.43,-1.09 -0.65,-1.63 V 63.9 c -0.73,0.33 -1.67,0.71 -2.89,1.15 -4.09,1.48 1.06,11.67 -3.47,26.43 l -0.3,0.94 a 17.57,17.57 0 0 1 -1.49,3.36 14.52,14.52 0 0 1 -6,5.74 16,16 0 0 1 -2.12,0.92 c -4.35,1.57 -9.35,1.53 -13.66,1.07 C 100.39,91.69 88.71,77.19 75,77.19 v 0 c -13.72,0 -25.4,14.5 -29.87,26.36 -4.31,0.46 -9.3,0.5 -13.66,-1.07 a 16,16 0 0 1 -2.12,-0.92 14.65,14.65 0 0 1 -6,-5.74 18.22,18.22 0 0 1 -1.49,-3.36 l -0.3,-0.93 v 0 c -4.53,-14.76 0.62,-25 -3.47,-26.43 -1.22,-0.44 -2.16,-0.82 -2.89,-1.15 -0.44,1.08 -0.87,2.16 -1.27,3.25 -0.18,0.48 -0.35,1 -0.52,1.45 -0.17,0.45 -0.3,0.86 -0.44,1.29 -0.14,0.43 -0.34,1 -0.49,1.48 -0.15,0.48 -0.4,1.26 -0.58,1.89 -0.18,0.63 -0.37,1.27 -0.54,1.9 -0.35,1.27 -0.67,2.55 -1,3.83 0.33,0 0.63,0 0.91,0 a 3.45,3.45 0 0 1 2.8,1.09 2.22,2.22 0 0 1 0.46,1.87 c 0,0 -0.06,0.24 -0.14,0.63 0,0.2 -0.09,0.44 -0.15,0.71 l -0.06,0.29 a 1.29,1.29 0 0 1 0,0.19 c -0.14,0.69 -0.3,1.55 -0.49,2.54 C 13.5,87.35 13.25,88.63 13,90 q -0.11,0.7 -0.21,1.44 a 2.34,2.34 0 0 0 0,0.26 c -0.07,0.48 -0.13,1 -0.19,1.46 -0.06,0.46 -0.11,0.86 -0.16,1.3 -0.05,0.44 -0.09,0.76 -0.13,1.15 a 56.64,56.64 0 0 0 -0.1,13.81 v 0 l 0.87,-1.28 2.11,-3.14 1.42,3.44 0.19,0.45 c 0.13,0.31 0.28,0.64 0.44,1 l 0.29,0.6 c 0.35,0.73 0.76,1.52 1.22,2.36 a 0.47,0.47 0 0 0 0,0.1 c 0,0 0,0 0,0 l 0.31,0.53 c 0.24,0.44 0.51,0.89 0.79,1.34 0.4,0.68 0.84,1.36 1.31,2.05 0.15,0.23 0.3,0.46 0.47,0.68 l 0.87,1.2 a 29.66,29.66 0 0 0 3.69,4.1 l 0.42,0.37 c 0.18,0.15 0.35,0.3 0.54,0.44 0.19,0.14 0.25,0.21 0.38,0.3 a 5.58,5.58 0 0 0 0.49,0.36 11.75,11.75 0 0 0 1.19,0.75 l 0.46,0.25 0.64,0.31 v 0 a 6.59,6.59 0 0 0 0.62,0.24 q 0.33,0.12 0.66,0.21 l 0.11,-1.35 0.27,-3.33 2.81,1.82 c 0,0 1.22,0.78 3.22,1.78 l 0.48,0.25 0.6,0.3 c 0.15,0.06 0.3,0.14 0.45,0.21 v 0 c 0.92,0.44 2,0.92 3.12,1.42 l 0.25,0.11 1,0.39 1.27,0.51 1.18,0.45 c 1,0.36 2,0.72 3.08,1.08 l 2.09,0.66 1.09,0.32 c 0.74,0.21 1.49,0.41 2.27,0.61 l 1.17,0.29 c 0.79,0.19 1.6,0.37 2.43,0.55 l 1.25,0.25 c 0.42,0.09 0.84,0.17 1.27,0.24 l 1.3,0.22 0.88,0.14 1.08,0.15 c 0.69,0.1 1.38,0.18 2.09,0.26 l 1.13,0.11 0.49,0.05 1,0.08 q 2,0.16 4,0.21 c 0.67,0 1.35,0 2,0 0.65,0 1.36,0 2,0 a 78.82,78.82 0 0 0 8.38,-0.66 l 1.67,-0.24 c 1.38,-0.21 2.72,-0.45 4,-0.72 l 1.68,-0.36 1.84,-0.44 c 1.14,-0.28 2.24,-0.58 3.3,-0.89 2,-0.59 3.88,-1.22 5.58,-1.85 l 1.55,-0.59 0.23,-0.09 0.84,-0.34 q 1.23,-0.51 2.31,-1 h 0.08 l 1.92,-0.9 v 0 a 50.84,50.84 0 0 0 4.68,-2.51 l 2.79,-1.81 0.28,3.32 v 0 l 0.11,1.35 q 0.33,-0.09 0.66,-0.21 a 6.58,6.58 0 0 0 0.62,-0.24 v 0 l 0.58,-0.28 0.4,-0.21 0.43,-0.25 0.54,-0.34 0.39,-0.27 0.47,-0.35 c 0.25,-0.18 0.49,-0.38 0.73,-0.58 l 0.54,-0.47 v 0 l 0.56,-0.53 c 0.37,-0.36 0.74,-0.73 1.09,-1.12 A 35.22,35.22 0 0 0 128,118 c 0.22,-0.3 0.43,-0.61 0.64,-0.92 1,-1.41 1.83,-2.83 2.56,-4.16 0.62,-1.13 1.15,-2.18 1.58,-3.09 l 0.42,-0.95 0.19,-0.45 1.42,-3.44 2.09,3.08 0.9,1.32 c 1.61,-10.17 -2.27,-27.24 -2.3,-27.38 a 2.24,2.24 0 0 1 0.4,-1.94 3.45,3.45 0 0 1 2.8,-1.07 z"
       id="path1673" />
    <path
       d="m 26.25,122.86 a 40.11,40.11 0 0 1 -7.44,-9.9 c 0,0 0,0 0,0 a 50.39,50.39 0 0 1 2.76,-21.41 v 0 c 1.92,-5.19 4.61,-9.38 7.64,-11.64 a 36.53,36.53 0 0 0 -5.85,15.94 59.14,59.14 0 0 0 2.89,27.01 z"
       id="path1675" />
    <path
       d="m 31.47,102.48 a 53.76,53.76 0 0 0 8.09,23.27 51.34,51.34 0 0 1 -4.67,-2.51 l -1.67,0.82 a 49,49 0 0 1 -3.87,-22.5 22.24,22.24 0 0 1 2.93,-10.09 33.06,33.06 0 0 0 -0.81,11.01 z"
       id="path1677" />
    <path
       d="m 131.2,112.93 a 39.63,39.63 0 0 1 -7.45,9.93 59.14,59.14 0 0 0 2.9,-27 36.53,36.53 0 0 0 -5.85,-15.94 c 3,2.26 5.72,6.45 7.64,11.64 a 50.39,50.39 0 0 1 2.76,21.37 z"
       id="path1679" />
    <path
       d="m 116.79,124.06 -1.67,-0.82 a 50.84,50.84 0 0 1 -4.68,2.51 53.76,53.76 0 0 0 8.09,-23.27 33.06,33.06 0 0 0 -0.81,-11 22.24,22.24 0 0 1 2.93,10.09 49.11,49.11 0 0 1 -3.86,22.49 z"
       id="path1681" />
    <path
       class="cls-3"
       d="m 98.61,63.18 c 7.24,-4.61 15,-6.6 15.58,-4.65 0.58,1.95 -2.81,15.09 -8.55,16.47 C 99.9,76.38 84,72.49 98.61,63.18 Z"
       id="path1683" />
    <circle
       cx="101.4"
       cy="65.900002"
       r="3.8699999"
       id="circle1685" />
    <path
       class="cls-3"
       d="M 51.39,63.18 C 44.15,58.57 36.39,56.58 35.81,58.53 35.23,60.48 38.62,73.62 44.36,75 50.1,76.38 66,72.49 51.39,63.18 Z"
       id="path1687" />
    <circle
       cx="48.599998"
       cy="65.900002"
       r="3.8699999"
       id="circle1689" />
    <line
       class="cls-4"
       x1="75"
       x2="75"
       y1="116.7"
       y2="108.52"
       id="line1691" />
    <path
       class="cls-4"
       d="M 93.63,124.54 C 86.81,134.6 75,125.79 75,125.79 c 0,0 -11.82,8.81 -18.63,-1.25 5.21,0.88 18.63,-2.21 18.63,-11.19 0,8.98 13.42,12.07 18.63,11.19 z"
       id="path1693" />
    <path
       class="cls-5"
       d="M 103.43,39.73 C 96.43,35.11 86.3,32.19 75,32.19 63.7,32.19 53.54,35.1 46.57,39.73 51.63,32.14 62.45,26.89 75,26.89 c 12.55,0 23.37,5.25 28.43,12.84 z"
       id="path1695" />
    <path
       class="cls-5"
       d="M 94.28,49.37 C 89.56,46.23 82.66,44.25 75,44.25 c -7.66,0 -14.55,2 -19.28,5.11 3.43,-5.15 10.77,-8.7 19.28,-8.7 8.51,0 15.85,3.56 19.28,8.71 z"
       id="path1697" />
    <path
       class="cls-6"
       d="m 106.25,24.39 c 8.71,-3.25 21,-4.91 22.49,-4.79 0.13,1.75 -1.87,15.92 -4.46,21.87 -5.83,-7.64 -18.03,-17.08 -18.03,-17.08 z"
       id="path1699" />
    <path
       class="cls-6"
       d="m 43.75,24.39 c -8.71,-3.25 -21,-4.91 -22.49,-4.79 -0.12,1.75 1.87,15.92 4.46,21.87 5.83,-7.64 18.03,-17.08 18.03,-17.08 z"
       id="path1701" />
    <path
       class="cls-7"
       d="m 91.67,89.1 c 0,15.67 -16.67,17.17 -16.67,19.67 0,-2.5 -16.67,-4 -16.67,-19.67 0,-9.48 4.64,-21 9.18,-28.67 3,-5 3.54,-5.44 7.49,-5.44 3.95,0 4.53,0.46 7.51,5.48 4.54,7.65 9.16,19.17 9.16,28.63 z"
       data-name="&lt;Path&gt;"
       id="_Path_2" />
    <path
       class="cls-8"
       d="m 87.34,99.09 c -2.76,3.4 -6.66,5.22 -9.46,6.52 a 19.18,19.18 0 0 0 -2.88,1.52 19.18,19.18 0 0 0 -2.88,-1.52 c -2.8,-1.3 -6.7,-3.12 -9.46,-6.52 a 28.41,28.41 0 0 1 24.68,0 z"
       id="path1704" />
  </g>
</svg>
