<?xml version="1.0" encoding="UTF-8" standalone="no"?>
<svg
   xmlns:dc="http://purl.org/dc/elements/1.1/"
   xmlns:cc="http://creativecommons.org/ns#"
   xmlns:rdf="http://www.w3.org/1999/02/22-rdf-syntax-ns#"
   xmlns:svg="http://www.w3.org/2000/svg"
   xmlns="http://www.w3.org/2000/svg"
   xmlns:sodipodi="http://sodipodi.sourceforge.net/DTD/sodipodi-0.dtd"
   xmlns:inkscape="http://www.inkscape.org/namespaces/inkscape"
   inkscape:version="1.0 (b51213c273, 2020-08-10)"
   height="50"
   width="50"
   sodipodi:docname="012.svg"
   version="1.1"
   viewBox="0 0 50 50"
   id="ART">
  <metadata
     id="metadata29">
    <rdf:RDF>
      <cc:Work
         rdf:about="">
        <dc:format>image/svg+xml</dc:format>
        <dc:type
           rdf:resource="http://purl.org/dc/dcmitype/StillImage" />
        <dc:title></dc:title>
      </cc:Work>
    </rdf:RDF>
  </metadata>
  <sodipodi:namedview
     inkscape:current-layer="ART"
     inkscape:window-maximized="1"
     inkscape:window-y="282"
     inkscape:window-x="1680"
     inkscape:cy="28.715794"
     inkscape:cx="21.291362"
     inkscape:zoom="5.2608745"
     showgrid="false"
     id="namedview27"
     inkscape:window-height="731"
     inkscape:window-width="1366"
     inkscape:pageshadow="2"
     inkscape:pageopacity="0"
     guidetolerance="10"
     gridtolerance="10"
     objecttolerance="10"
     borderopacity="1"
     bordercolor="#666666"
     pagecolor="#ffffff"
     inkscape:document-rotation="0"
     showguides="true"
     inkscape:guide-bbox="true">
    <sodipodi:guide
       position="9.5430107,22.311828"
       orientation="1,0"
       id="guide841" />
    <sodipodi:guide
       position="24.995844,42.681825"
       orientation="0,-1"
       id="guide843" />
    <sodipodi:guide
       position="40.582607,29.471094"
       orientation="1,0"
       id="guide845" />
    <sodipodi:guide
       position="26.516504,7.61161"
       orientation="0,-1"
       id="guide847" />
  </sodipodi:namedview>
  <defs
     id="defs4">
    <style
       id="style2">.cls-1,.cls-2{fill:#ffc533;}.cls-1,.cls-2,.cls-3,.cls-4{stroke:#000;}.cls-1{stroke-linecap:round;stroke-linejoin:round;}.cls-1,.cls-3{stroke-width:2px;}.cls-2,.cls-3,.cls-4{stroke-miterlimit:10;}.cls-2,.cls-4{stroke-width:4px;}.cls-3{fill:#fff;}.cls-4{fill:#ea6726;}</style>
    <style
       id="style849">.cls-1{fill:#b7b4b3;stroke-width:4px;}.cls-1,.cls-2,.cls-3,.cls-4{stroke:#000;stroke-miterlimit:10;}.cls-2{fill:#7a5342;}.cls-2,.cls-4{stroke-linecap:round;}.cls-2,.cls-3,.cls-4{stroke-width:2px;}.cls-3{fill:#c9c9c9;}.cls-4{fill:#4c3e38;}.cls-5{fill:#9b9998;}</style>
    <style
       id="style904">.cls-1,.cls-3{fill:#a0683a;}.cls-1,.cls-3,.cls-4,.cls-5,.cls-6,.cls-7{stroke:#000;}.cls-1,.cls-3,.cls-4,.cls-5,.cls-6{stroke-miterlimit:10;}.cls-1,.cls-5,.cls-7{stroke-width:2px;}.cls-2{fill:#70411d;}.cls-3,.cls-4{stroke-width:4px;}.cls-4{fill:#c48a51;}.cls-5{fill:#fff;}.cls-6{fill:#e29149;stroke-width:3px;}.cls-7{fill:none;stroke-linecap:round;stroke-linejoin:round;}</style>
    <style
       id="style973">.cls-1,.cls-2{fill:#91592c;}.cls-1,.cls-4,.cls-5,.cls-6,.cls-7{stroke:#000;}.cls-1,.cls-4,.cls-6,.cls-7{stroke-miterlimit:10;}.cls-1,.cls-6{stroke-width:4px;}.cls-3{fill:#683023;}.cls-4{fill:#281614;}.cls-4,.cls-5,.cls-7{stroke-width:2px;}.cls-5{fill:#6d3722;stroke-miterlimit:20;}.cls-6{fill:#5e3730;}.cls-7{fill:#fff;}</style>
    <style
       id="style1062">.cls-1,.cls-4{fill:#acb3ba;}.cls-1,.cls-3,.cls-5,.cls-6,.cls-7{stroke:#000;}.cls-1,.cls-3,.cls-5,.cls-7{stroke-miterlimit:10;}.cls-1,.cls-3{stroke-width:4px;}.cls-2{fill:#72767a;}.cls-3{fill:#d1d1d1;}.cls-5{fill:#fff;}.cls-6{fill:none;stroke-linecap:round;stroke-linejoin:round;}.cls-7{fill:#6b6e70;stroke-width:2px;}</style>
    <style
       id="style1136">.cls-1{fill:#9ea9ac;}.cls-1,.cls-3,.cls-4,.cls-5,.cls-6{stroke:#000;}.cls-1,.cls-3,.cls-4{stroke-miterlimit:10;}.cls-1,.cls-3,.cls-5{stroke-width:4px;}.cls-2{fill:#5e6c70;}.cls-3,.cls-5{fill:#b4bfc2;}.cls-4{fill:#fceebb;stroke-width:2px;}.cls-5,.cls-6{stroke-linecap:round;stroke-linejoin:round;}.cls-6{fill:#fcfcfc;stroke-width:1.89px;}</style>
    <style
       id="style1211">.cls-1{fill:#ccc;stroke-linejoin:round;stroke-width:4px;}.cls-1,.cls-2,.cls-3{stroke:#000;}.cls-2{fill:#bf7d47;stroke-width:3px;}.cls-2,.cls-3{stroke-linecap:round;stroke-miterlimit:10;}.cls-3{fill:#eddbae;}.cls-4{fill:#e2a350;}</style>
    <style
       id="style1272">.cls-1,.cls-2{fill:#444;}.cls-1,.cls-4,.cls-5,.cls-6,.cls-8{stroke:#000;stroke-miterlimit:10;}.cls-1{stroke-width:4px;}.cls-3{fill:#bcbcbc;}.cls-4,.cls-6{fill:#333;}.cls-4,.cls-5,.cls-6,.cls-8{stroke-width:2px;}.cls-5{fill:none;}.cls-6{stroke-linecap:round;}.cls-7{fill:#7f7f7f;}.cls-8{fill:#fff797;}</style>
    <style
       id="style1357">.cls-1{fill:#b26f2d;}.cls-1,.cls-10,.cls-3,.cls-4,.cls-6,.cls-7,.cls-9{stroke:#000;stroke-miterlimit:10;}.cls-1,.cls-3{stroke-width:4px;}.cls-2{fill:#d8985d;}.cls-3{fill:#dd852f;}.cls-4,.cls-5{fill:#f2c497;}.cls-4,.cls-6,.cls-7,.cls-9{stroke-width:2px;}.cls-6{fill:#efdfc4;}.cls-7{fill:#fff;}.cls-8{fill:#4c331c;}.cls-10,.cls-9{fill:none;}.cls-9{stroke-linecap:round;}</style>
    <style
       id="style1449">.cls-1{fill:#40586a;}.cls-2{fill:#d3dae0;stroke-width:4px;}.cls-2,.cls-3,.cls-5,.cls-6,.cls-7{stroke:#000;}.cls-2,.cls-3,.cls-7{stroke-miterlimit:10;}.cls-3,.cls-6{fill:none;}.cls-4{fill:#8095a0;}.cls-5{fill:#001723;}.cls-5,.cls-6{stroke-linecap:round;stroke-linejoin:round;}.cls-5,.cls-7{stroke-width:2px;}.cls-6{stroke-width:3px;}.cls-7{fill:#e8e6ac;}</style>
    <style
       id="style1522">.cls-1,.cls-2,.cls-3{fill:#a7b6c4;}.cls-1,.cls-2,.cls-3,.cls-4,.cls-5,.cls-6{stroke:#000;}.cls-1{stroke-linecap:round;stroke-linejoin:round;}.cls-1,.cls-2,.cls-5,.cls-6{stroke-width:2px;}.cls-2,.cls-3,.cls-4,.cls-5,.cls-6{stroke-miterlimit:10;}.cls-3{stroke-width:3px;}.cls-4{fill:#6d839b;stroke-width:4px;}.cls-5{fill:#44372e;}.cls-6{fill:#fff;}.cls-7{fill:#384856;}</style>
  </defs>
  <rect
     ry="25"
     rx="25"
     y="0"
     x="0"
     height="50"
     width="50"
     id="rect42"
     style="fill:#e6e6e6;fill-rule:evenodd;stroke-width:1.01205" />
  <g
     id="g1566"
     transform="matrix(0.23884568,0,0,0.23884568,7.0899979,7.086574)">
    <path
       class="cls-1"
       d="m 44.63,111.82 c 5.93,-2.24 11.18,9.13 11.82,17 0.64,7.87 -29.42,5.75 -36.08,-0.08 14.63,0.65 13.89,-13.01 24.26,-16.92 z"
       id="path1528" />
    <path
       class="cls-1"
       d="m 114.2,111.82 c -5.93,-2.24 -11.18,9.13 -11.82,17 -0.64,7.87 29.42,5.75 36.08,-0.08 -14.66,0.65 -13.89,-13.01 -24.26,-16.92 z"
       id="path1530" />
    <path
       class="cls-2"
       d="M 74.7,41.49 C 75.82,29.15 79.8,5.3 94,5.3 82.69,9.72 82.54,37.62 87.58,41.49 c 5.04,3.87 -12.88,0 -12.88,0 z"
       id="path1532" />
    <path
       class="cls-3"
       d="m 53.84,75.29 1.62,19 c -15.58,5 -37.54,15.82 -43,28.78 -2.69,-16.83 7.33,-39.73 22.11,-51 C 24.17,56.77 22,31.86 30,16.78 c 1,14 18.34,31.33 31.51,41 z"
       id="path1534" />
    <path
       class="cls-4"
       d="m 113.77,100.19 c 0,29.63 -15.26,43.51 -34.08,43.51 -18.82,0 -34.08,-13.88 -34.08,-43.51 0,-29.63 15.26,-63.8 34.08,-63.8 18.82,0 34.08,34.16 34.08,63.8 z"
       data-name="&lt;Path&gt;"
       id="_Path_-3" />
    <path
       class="cls-5"
       d="m 89.59,95.07 a 16.7,16.7 0 0 0 -19.81,0 c 1.75,-6 5.53,-10.07 9.91,-10.07 4.38,0 8.15,4.12 9.9,10.07 z"
       id="path1537" />
    <path
       class="cls-6"
       d="m 112,76.43 c 2.11,5.12 2.2,10.82 -1,12.09 -3.2,1.27 -6.71,1.19 -8.82,-3.93 -2.11,-5.12 -1.41,-11 1.25,-13 2.66,-2 6.42,-0.29 8.57,4.84 z"
       id="path1539" />
    <path
       d="m 109,87 c -0.92,0.36 -4.08,1.2 -6,-3.38 -1.51,-3.65 -0.27,-6.66 1.57,-8.13 1.84,-1.47 4.47,0.61 5.68,3.54 1.53,3.54 0.95,7.12 -1.25,7.97 z"
       id="path1541" />
    <path
       class="cls-6"
       d="m 47.41,76.43 c -2.11,5.12 -2.2,10.82 1,12.09 3.2,1.27 6.71,1.19 8.82,-3.93 2.11,-5.12 1.41,-11 -1.25,-13 -2.66,-2 -6.46,-0.29 -8.57,4.84 z"
       id="path1543" />
    <path
       d="m 50.34,87 c 0.92,0.36 4.08,1.2 6,-3.38 1.51,-3.65 0.27,-6.66 -1.57,-8.13 -1.84,-1.47 -4.47,0.61 -5.68,3.54 -1.49,3.54 -0.92,7.12 1.25,7.97 z"
       id="path1545" />
    <path
       class="cls-7"
       d="m 107.48,123.18 c -5.2,11.77 -14.91,18.51 -27.79,18.51 -12.22,0 -21.58,-6.06 -27,-16.73 6.93,-6 17.12,-9.81 28.49,-9.81 10.25,0 19.5,3.06 26.3,8.03 z"
       id="path1547" />
  </g>
</svg>
