<?xml version="1.0" encoding="UTF-8" standalone="no"?>
<svg
   xmlns:dc="http://purl.org/dc/elements/1.1/"
   xmlns:cc="http://creativecommons.org/ns#"
   xmlns:rdf="http://www.w3.org/1999/02/22-rdf-syntax-ns#"
   xmlns:svg="http://www.w3.org/2000/svg"
   xmlns="http://www.w3.org/2000/svg"
   xmlns:sodipodi="http://sodipodi.sourceforge.net/DTD/sodipodi-0.dtd"
   xmlns:inkscape="http://www.inkscape.org/namespaces/inkscape"
   inkscape:version="1.0 (b51213c273, 2020-08-10)"
   height="50"
   width="50"
   sodipodi:docname="011.svg"
   version="1.1"
   viewBox="0 0 50 50"
   id="ART">
  <metadata
     id="metadata29">
    <rdf:RDF>
      <cc:Work
         rdf:about="">
        <dc:format>image/svg+xml</dc:format>
        <dc:type
           rdf:resource="http://purl.org/dc/dcmitype/StillImage" />
        <dc:title></dc:title>
      </cc:Work>
    </rdf:RDF>
  </metadata>
  <sodipodi:namedview
     inkscape:current-layer="ART"
     inkscape:window-maximized="1"
     inkscape:window-y="282"
     inkscape:window-x="1680"
     inkscape:cy="28.715794"
     inkscape:cx="21.291362"
     inkscape:zoom="5.2608745"
     showgrid="false"
     id="namedview27"
     inkscape:window-height="731"
     inkscape:window-width="1366"
     inkscape:pageshadow="2"
     inkscape:pageopacity="0"
     guidetolerance="10"
     gridtolerance="10"
     objecttolerance="10"
     borderopacity="1"
     bordercolor="#666666"
     pagecolor="#ffffff"
     inkscape:document-rotation="0"
     showguides="true"
     inkscape:guide-bbox="true">
    <sodipodi:guide
       position="9.5430107,22.311828"
       orientation="1,0"
       id="guide841" />
    <sodipodi:guide
       position="24.995844,42.681825"
       orientation="0,-1"
       id="guide843" />
    <sodipodi:guide
       position="40.582607,29.471094"
       orientation="1,0"
       id="guide845" />
    <sodipodi:guide
       position="26.516504,7.61161"
       orientation="0,-1"
       id="guide847" />
  </sodipodi:namedview>
  <defs
     id="defs4">
    <style
       id="style2">.cls-1,.cls-2{fill:#ffc533;}.cls-1,.cls-2,.cls-3,.cls-4{stroke:#000;}.cls-1{stroke-linecap:round;stroke-linejoin:round;}.cls-1,.cls-3{stroke-width:2px;}.cls-2,.cls-3,.cls-4{stroke-miterlimit:10;}.cls-2,.cls-4{stroke-width:4px;}.cls-3{fill:#fff;}.cls-4{fill:#ea6726;}</style>
    <style
       id="style849">.cls-1{fill:#b7b4b3;stroke-width:4px;}.cls-1,.cls-2,.cls-3,.cls-4{stroke:#000;stroke-miterlimit:10;}.cls-2{fill:#7a5342;}.cls-2,.cls-4{stroke-linecap:round;}.cls-2,.cls-3,.cls-4{stroke-width:2px;}.cls-3{fill:#c9c9c9;}.cls-4{fill:#4c3e38;}.cls-5{fill:#9b9998;}</style>
    <style
       id="style904">.cls-1,.cls-3{fill:#a0683a;}.cls-1,.cls-3,.cls-4,.cls-5,.cls-6,.cls-7{stroke:#000;}.cls-1,.cls-3,.cls-4,.cls-5,.cls-6{stroke-miterlimit:10;}.cls-1,.cls-5,.cls-7{stroke-width:2px;}.cls-2{fill:#70411d;}.cls-3,.cls-4{stroke-width:4px;}.cls-4{fill:#c48a51;}.cls-5{fill:#fff;}.cls-6{fill:#e29149;stroke-width:3px;}.cls-7{fill:none;stroke-linecap:round;stroke-linejoin:round;}</style>
    <style
       id="style973">.cls-1,.cls-2{fill:#91592c;}.cls-1,.cls-4,.cls-5,.cls-6,.cls-7{stroke:#000;}.cls-1,.cls-4,.cls-6,.cls-7{stroke-miterlimit:10;}.cls-1,.cls-6{stroke-width:4px;}.cls-3{fill:#683023;}.cls-4{fill:#281614;}.cls-4,.cls-5,.cls-7{stroke-width:2px;}.cls-5{fill:#6d3722;stroke-miterlimit:20;}.cls-6{fill:#5e3730;}.cls-7{fill:#fff;}</style>
    <style
       id="style1062">.cls-1,.cls-4{fill:#acb3ba;}.cls-1,.cls-3,.cls-5,.cls-6,.cls-7{stroke:#000;}.cls-1,.cls-3,.cls-5,.cls-7{stroke-miterlimit:10;}.cls-1,.cls-3{stroke-width:4px;}.cls-2{fill:#72767a;}.cls-3{fill:#d1d1d1;}.cls-5{fill:#fff;}.cls-6{fill:none;stroke-linecap:round;stroke-linejoin:round;}.cls-7{fill:#6b6e70;stroke-width:2px;}</style>
    <style
       id="style1136">.cls-1{fill:#9ea9ac;}.cls-1,.cls-3,.cls-4,.cls-5,.cls-6{stroke:#000;}.cls-1,.cls-3,.cls-4{stroke-miterlimit:10;}.cls-1,.cls-3,.cls-5{stroke-width:4px;}.cls-2{fill:#5e6c70;}.cls-3,.cls-5{fill:#b4bfc2;}.cls-4{fill:#fceebb;stroke-width:2px;}.cls-5,.cls-6{stroke-linecap:round;stroke-linejoin:round;}.cls-6{fill:#fcfcfc;stroke-width:1.89px;}</style>
    <style
       id="style1211">.cls-1{fill:#ccc;stroke-linejoin:round;stroke-width:4px;}.cls-1,.cls-2,.cls-3{stroke:#000;}.cls-2{fill:#bf7d47;stroke-width:3px;}.cls-2,.cls-3{stroke-linecap:round;stroke-miterlimit:10;}.cls-3{fill:#eddbae;}.cls-4{fill:#e2a350;}</style>
    <style
       id="style1272">.cls-1,.cls-2{fill:#444;}.cls-1,.cls-4,.cls-5,.cls-6,.cls-8{stroke:#000;stroke-miterlimit:10;}.cls-1{stroke-width:4px;}.cls-3{fill:#bcbcbc;}.cls-4,.cls-6{fill:#333;}.cls-4,.cls-5,.cls-6,.cls-8{stroke-width:2px;}.cls-5{fill:none;}.cls-6{stroke-linecap:round;}.cls-7{fill:#7f7f7f;}.cls-8{fill:#fff797;}</style>
    <style
       id="style1357">.cls-1{fill:#b26f2d;}.cls-1,.cls-10,.cls-3,.cls-4,.cls-6,.cls-7,.cls-9{stroke:#000;stroke-miterlimit:10;}.cls-1,.cls-3{stroke-width:4px;}.cls-2{fill:#d8985d;}.cls-3{fill:#dd852f;}.cls-4,.cls-5{fill:#f2c497;}.cls-4,.cls-6,.cls-7,.cls-9{stroke-width:2px;}.cls-6{fill:#efdfc4;}.cls-7{fill:#fff;}.cls-8{fill:#4c331c;}.cls-10,.cls-9{fill:none;}.cls-9{stroke-linecap:round;}</style>
    <style
       id="style1449">.cls-1{fill:#40586a;}.cls-2{fill:#d3dae0;stroke-width:4px;}.cls-2,.cls-3,.cls-5,.cls-6,.cls-7{stroke:#000;}.cls-2,.cls-3,.cls-7{stroke-miterlimit:10;}.cls-3,.cls-6{fill:none;}.cls-4{fill:#8095a0;}.cls-5{fill:#001723;}.cls-5,.cls-6{stroke-linecap:round;stroke-linejoin:round;}.cls-5,.cls-7{stroke-width:2px;}.cls-6{stroke-width:3px;}.cls-7{fill:#e8e6ac;}</style>
  </defs>
  <rect
     ry="25"
     rx="25"
     y="0"
     x="0"
     height="50"
     width="50"
     id="rect42"
     style="fill:#e6e6e6;fill-rule:evenodd;stroke-width:1.01205" />
  <g
     id="g1502"
     transform="matrix(0.25698903,0,0,0.25698903,5.7265595,5.7256687)">
    <path
       class="cls-1"
       d="M 123.41,84.14 A 102.23,102.23 0 0 1 122,72.33 L 121.9,70 c -0.46,-8 -1.31,-22.8 -2.83,-36 -2.51,-21.74 -5.23,-24.61 -5.75,-25 -2.11,0.18 -7.21,5.86 -13.52,26.22 l -0.12,0.39 c -0.07,0.21 -0.13,0.43 -0.19,0.66 -1.38,5 -4.4,9.86 -24.39,9.9 h -0.21 c -20,0 -23,-4.91 -24.38,-9.9 -0.06,-0.23 -0.12,-0.45 -0.19,-0.66 L 50.2,35.22 C 43.89,14.87 38.79,9.19 36.68,9 36.16,9.35 33.44,12.22 30.93,34 29.41,47.21 28.56,62 28.1,70 L 28,72.33 a 102.23,102.23 0 0 1 -1.38,11.81 c -0.81,4.86 -1.44,8.69 -0.54,18.5 1.31,14.28 42.09,38 49,38.35 6.86,-0.39 47.64,-24.07 49,-38.35 0.77,-9.81 0.14,-13.64 -0.67,-18.5 z m -15.68,22.58 c -8.35,2.52 -17.5,29.53 -32.49,29.7 -15,-0.17 -24.13,-27.18 -32.48,-29.7 C 36.94,105 31,102.12 31.23,98.34 31.75,86.9 34.35,65.26 36.51,64.15 c 16.45,-8.48 31,-3.61 35,45.81 H 79 c 4,-49.42 18.51,-54.29 35,-45.81 2.15,1.11 4.76,22.75 5.28,34.19 0.15,3.78 -5.73,6.66 -11.55,8.38 z"
       id="path1455" />
    <path
       class="cls-2"
       d="M 125.94,102.82 C 124.49,118.62 81.94,142.76 75,143 68.08,142.76 25.5,118.62 24.06,102.82 22.58,86.72 25.15,86.23 25.98,72.22 26.81,58.21 29.36,7 36.57,7 c 7.21,0 14.63,24.73 15.66,28 1.03,3.27 1,9.11 22.67,9.15 h 0.21 c 21.64,0 21.64,-5.86 22.67,-9.15 1.03,-3.29 8.45,-28 15.66,-28 7.21,0 9.76,51.2 10.56,65.22 0.8,14.02 3.42,14.49 1.94,30.6 z"
       data-name="&lt;Path&gt;"
       id="_Path_" />
    <path
       class="cls-1"
       d="M 123.41,84.14 A 102.23,102.23 0 0 1 122,72.33 L 121.9,70 c -0.46,-8 -1.31,-22.8 -2.83,-36 -2.51,-21.74 -5.23,-24.61 -5.75,-25 -2.11,0.18 -7.21,5.86 -13.52,26.22 l -0.12,0.39 c -0.07,0.21 -0.13,0.43 -0.19,0.66 -1.38,5 -4.4,9.86 -24.39,9.9 h -0.21 c -20,0 -23,-4.91 -24.38,-9.9 -0.06,-0.23 -0.12,-0.45 -0.19,-0.66 L 50.2,35.22 C 43.89,14.87 38.79,9.19 36.68,9 36.16,9.35 33.44,12.22 30.93,34 29.41,47.21 28.56,62 28.1,70 L 28,72.33 a 102.23,102.23 0 0 1 -1.38,11.81 c -0.81,4.86 -1.44,8.69 -0.54,18.5 1.31,14.28 42.09,38 49,38.35 6.86,-0.39 47.64,-24.07 49,-38.35 0.77,-9.81 0.14,-13.64 -0.67,-18.5 z m -15.68,22.58 c -8.35,2.52 -17.5,29.53 -32.49,29.7 -15,-0.17 -24.13,-27.18 -32.48,-29.7 C 36.94,105 31,102.12 31.23,98.34 31.75,86.9 34.35,65.26 36.51,64.15 c 16.45,-8.48 31,-3.61 35,45.81 H 79 c 4,-49.42 18.51,-54.29 35,-45.81 2.15,1.11 4.76,22.75 5.28,34.19 0.15,3.78 -5.73,6.66 -11.55,8.38 z"
       id="path1458" />
    <path
       class="cls-3"
       d="M 75,143 H 74.9"
       id="path1460" />
    <path
       class="cls-3"
       d="M 75.1,143 H 75"
       id="path1462" />
    <path
       class="cls-4"
       d="M 43.45,46 C 53.84,43 41.1,17.66 38.73,13.85 34.3,20.67 28,50.55 43.45,46 Z"
       id="path1464" />
    <path
       class="cls-4"
       d="m 106.36,46 c -10.39,-3 2.76,-28.34 5.13,-32.15 4.43,6.82 10.35,36.7 -5.13,32.15 z"
       id="path1466" />
    <path
       class="cls-5"
       d="m 85.41,111.33 c 0,4.32 -6.76,9.83 -10.41,9.83 -3.65,0 -10.41,-5.51 -10.41,-9.83 0,-4.32 4.66,-5.83 10.41,-5.83 5.75,0 10.41,1.5 10.41,5.83 z"
       id="path1468" />
    <line
       class="cls-6"
       x1="75"
       x2="75"
       y1="127.48"
       y2="121.64"
       id="line1470" />
    <path
       class="cls-6"
       d="m 83,125.46 c 0,2.43 -3.59,3.4 -8,3.4 -4.41,0 -8,-1 -8,-3.4"
       id="path1472" />
    <path
       class="cls-7"
       d="m 100.48,71.35 c 1.27,3.71 -2.21,10.82 -5.92,12.09 a 7.09,7.09 0 0 1 -9,-4.41 c -0.73,-2.14 1.87,-5.44 3.87,-6.88 3.85,-2.78 9.77,-4.51 11.05,-0.8 z"
       id="path1474" />
    <circle
       cx="91.809998"
       cy="74.989998"
       r="3.1500001"
       id="circle1476" />
    <path
       class="cls-7"
       d="m 49.52,71.35 c -1.27,3.71 2.21,10.82 5.92,12.09 a 7.09,7.09 0 0 0 9,-4.41 c 0.73,-2.14 -1.87,-5.44 -3.87,-6.88 -3.85,-2.78 -9.77,-4.51 -11.05,-0.8 z"
       id="path1478" />
    <circle
       cx="58.189999"
       cy="74.989998"
       r="3.1500001"
       id="circle1480" />
  </g>
</svg>
