<?xml version="1.0" encoding="UTF-8" standalone="no"?>
<svg
   xmlns:dc="http://purl.org/dc/elements/1.1/"
   xmlns:cc="http://creativecommons.org/ns#"
   xmlns:rdf="http://www.w3.org/1999/02/22-rdf-syntax-ns#"
   xmlns:svg="http://www.w3.org/2000/svg"
   xmlns="http://www.w3.org/2000/svg"
   xmlns:sodipodi="http://sodipodi.sourceforge.net/DTD/sodipodi-0.dtd"
   xmlns:inkscape="http://www.inkscape.org/namespaces/inkscape"
   inkscape:version="1.0 (b51213c273, 2020-08-10)"
   height="50"
   width="50"
   sodipodi:docname="007.svg"
   version="1.1"
   viewBox="0 0 50 50"
   id="ART">
  <metadata
     id="metadata29">
    <rdf:RDF>
      <cc:Work
         rdf:about="">
        <dc:format>image/svg+xml</dc:format>
        <dc:type
           rdf:resource="http://purl.org/dc/dcmitype/StillImage" />
        <dc:title></dc:title>
      </cc:Work>
    </rdf:RDF>
  </metadata>
  <sodipodi:namedview
     inkscape:current-layer="ART"
     inkscape:window-maximized="1"
     inkscape:window-y="282"
     inkscape:window-x="1680"
     inkscape:cy="25.491097"
     inkscape:cx="20.540089"
     inkscape:zoom="10.521749"
     showgrid="false"
     id="namedview27"
     inkscape:window-height="731"
     inkscape:window-width="1366"
     inkscape:pageshadow="2"
     inkscape:pageopacity="0"
     guidetolerance="10"
     gridtolerance="10"
     objecttolerance="10"
     borderopacity="1"
     bordercolor="#666666"
     pagecolor="#ffffff"
     inkscape:document-rotation="0"
     showguides="true"
     inkscape:guide-bbox="true">
    <sodipodi:guide
       position="9.5430107,22.311828"
       orientation="1,0"
       id="guide841" />
    <sodipodi:guide
       position="24.995844,42.681825"
       orientation="0,-1"
       id="guide843" />
    <sodipodi:guide
       position="40.582607,29.471094"
       orientation="1,0"
       id="guide845" />
    <sodipodi:guide
       position="26.516504,7.61161"
       orientation="0,-1"
       id="guide847" />
  </sodipodi:namedview>
  <defs
     id="defs4">
    <style
       id="style2">.cls-1,.cls-2{fill:#ffc533;}.cls-1,.cls-2,.cls-3,.cls-4{stroke:#000;}.cls-1{stroke-linecap:round;stroke-linejoin:round;}.cls-1,.cls-3{stroke-width:2px;}.cls-2,.cls-3,.cls-4{stroke-miterlimit:10;}.cls-2,.cls-4{stroke-width:4px;}.cls-3{fill:#fff;}.cls-4{fill:#ea6726;}</style>
    <style
       id="style849">.cls-1{fill:#b7b4b3;stroke-width:4px;}.cls-1,.cls-2,.cls-3,.cls-4{stroke:#000;stroke-miterlimit:10;}.cls-2{fill:#7a5342;}.cls-2,.cls-4{stroke-linecap:round;}.cls-2,.cls-3,.cls-4{stroke-width:2px;}.cls-3{fill:#c9c9c9;}.cls-4{fill:#4c3e38;}.cls-5{fill:#9b9998;}</style>
    <style
       id="style904">.cls-1,.cls-3{fill:#a0683a;}.cls-1,.cls-3,.cls-4,.cls-5,.cls-6,.cls-7{stroke:#000;}.cls-1,.cls-3,.cls-4,.cls-5,.cls-6{stroke-miterlimit:10;}.cls-1,.cls-5,.cls-7{stroke-width:2px;}.cls-2{fill:#70411d;}.cls-3,.cls-4{stroke-width:4px;}.cls-4{fill:#c48a51;}.cls-5{fill:#fff;}.cls-6{fill:#e29149;stroke-width:3px;}.cls-7{fill:none;stroke-linecap:round;stroke-linejoin:round;}</style>
    <style
       id="style973">.cls-1,.cls-2{fill:#91592c;}.cls-1,.cls-4,.cls-5,.cls-6,.cls-7{stroke:#000;}.cls-1,.cls-4,.cls-6,.cls-7{stroke-miterlimit:10;}.cls-1,.cls-6{stroke-width:4px;}.cls-3{fill:#683023;}.cls-4{fill:#281614;}.cls-4,.cls-5,.cls-7{stroke-width:2px;}.cls-5{fill:#6d3722;stroke-miterlimit:20;}.cls-6{fill:#5e3730;}.cls-7{fill:#fff;}</style>
    <style
       id="style1062">.cls-1,.cls-4{fill:#acb3ba;}.cls-1,.cls-3,.cls-5,.cls-6,.cls-7{stroke:#000;}.cls-1,.cls-3,.cls-5,.cls-7{stroke-miterlimit:10;}.cls-1,.cls-3{stroke-width:4px;}.cls-2{fill:#72767a;}.cls-3{fill:#d1d1d1;}.cls-5{fill:#fff;}.cls-6{fill:none;stroke-linecap:round;stroke-linejoin:round;}.cls-7{fill:#6b6e70;stroke-width:2px;}</style>
    <style
       id="style1136">.cls-1{fill:#9ea9ac;}.cls-1,.cls-3,.cls-4,.cls-5,.cls-6{stroke:#000;}.cls-1,.cls-3,.cls-4{stroke-miterlimit:10;}.cls-1,.cls-3,.cls-5{stroke-width:4px;}.cls-2{fill:#5e6c70;}.cls-3,.cls-5{fill:#b4bfc2;}.cls-4{fill:#fceebb;stroke-width:2px;}.cls-5,.cls-6{stroke-linecap:round;stroke-linejoin:round;}.cls-6{fill:#fcfcfc;stroke-width:1.89px;}</style>
  </defs>
  <rect
     ry="25"
     rx="25"
     y="0"
     x="0"
     height="50"
     width="50"
     id="rect42"
     style="fill:#e6e6e6;fill-rule:evenodd;stroke-width:1.01205" />
  <g
     id="g1191"
     transform="matrix(0.20977912,0,0,0.20977912,9.2660555,9.266566)">
    <path
       class="cls-1"
       d="M 44.56,24.15 C 37.08,15.9 18,7.82 6.81,30.86 1.89,40.94 7.8,52.53 14,63 21.9,76.5 32.05,87 39.19,78.32 51.89,62.85 44.56,24.15 44.56,24.15 Z"
       data-name="&lt;Path&gt;"
       id="_Path_-2" />
    <path
       class="cls-1"
       d="m 105.44,24.15 c 7.49,-8.25 26.53,-16.34 37.76,6.71 4.91,10.08 -1,21.67 -7.16,32.16 -7.93,13.48 -18.09,24 -25.23,15.31 -12.7,-15.48 -5.37,-54.18 -5.37,-54.18 z"
       data-name="&lt;Path&gt;"
       id="_Path_2-9" />
    <path
       class="cls-2"
       d="m 53.4,30.14 c -8.78,-10.67 -40.08,-11.87 -37,13.58 1.5,12.44 6.09,18.32 13.9,26.1 11.08,11 24.17,11.94 31.31,3.23 C 74.29,57.58 53.4,30.14 53.4,30.14 Z"
       id="path1144" />
    <path
       class="cls-2"
       d="m 96.6,30.14 c 8.78,-10.67 40.08,-11.87 37,13.58 -1.5,12.44 -6.09,18.32 -13.9,26.1 -11.08,11 -24.17,11.94 -31.31,3.23 C 75.71,57.58 96.6,30.14 96.6,30.14 Z"
       id="path1146" />
    <path
       class="cls-3"
       d="M 114.24,61.62 C 110.62,77.1 113.58,86.04 106.88,95.79 101.45,103.7 87.11,113.55 75,113.55 62.89,113.55 48.56,103.7 43.11,95.79 36.41,86.03 39.38,77.09 35.75,61.62 28.53,30.72 48.69,9.32 75,9.32 c 26.31,0 46.48,21.4 39.24,52.3 z"
       id="path1148" />
    <path
       class="cls-4"
       d="m 95.92,96.4 c 5.14,-1.75 8.68,3.83 9.44,9.95 0.76,6.12 6.32,9.63 4.24,11.66 -2.44,2.37 -11.62,-3.83 -15.6,-10.08 -2.82,-4.43 -3.28,-9.76 1.92,-11.53 z"
       id="path1150" />
    <path
       class="cls-4"
       d="m 54.08,96.4 c -5.14,-1.75 -8.68,3.83 -9.44,9.95 -0.76,6.12 -6.33,9.65 -4.25,11.65 2.44,2.37 11.62,-3.83 15.6,-10.08 2.83,-4.42 3.29,-9.75 -1.91,-11.52 z"
       id="path1152" />
    <path
       class="cls-5"
       d="m 57.69,92.72 c 3.19,9.09 4.26,34.87 -4.59,37 -4.31,1 -8,-1.75 -8.09,-4.25 -0.09,-2.5 -2.06,-7.22 -4.5,-3.37 -3,-1.08 -4.67,2 -2.34,4.25 -0.17,4.08 5.18,14.33 15.83,14.33 23.38,0 38.92,-17.19 37,-48.17"
       id="path1154" />
    <path
       class="cls-6"
       d="m 102.65,63.52 c 0,3.51 -3.19,7.25 -7.12,7.25 -3.93,0 -7.12,-2 -7.12,-5.46 0,-3.46 3.19,-7.25 7.13,-7.25 3.94,0 7.11,1.94 7.11,5.46 z"
       id="path1156" />
    <ellipse
       cx="95.519997"
       cy="64.410004"
       rx="3.45"
       ry="3.0799999"
       id="ellipse1158" />
    <path
       class="cls-6"
       d="m 61.6,65.3 c 0,3.51 -3.19,5.46 -7.12,5.46 -3.93,0 -7.13,-3.76 -7.13,-7.24 0,-3.48 3.19,-5.46 7.13,-5.46 3.94,0 7.12,3.73 7.12,7.24 z"
       id="path1160" />
    <ellipse
       cx="54.48"
       cy="64.410004"
       rx="3.45"
       ry="3.0799999"
       id="ellipse1162" />
    <path
       class="cls-2"
       d="M 94.5,29.15 C 89.72,26.93 82.75,25.53 75,25.53 c -7.75,0 -14.71,1.4 -19.49,3.62 C 59,25.5 66.39,23 75,23 c 8.61,0 16,2.5 19.5,6.15 z"
       id="path1164" />
    <path
       class="cls-2"
       d="M 84.77,41.72 A 24.15,24.15 0 0 0 75,39.9 24.13,24.13 0 0 0 65.23,41.71 C 67,39.89 70.68,38.63 75,38.63 c 4.32,0 8,1.26 9.77,3.09 z"
       id="path1166" />
    <path
       class="cls-2"
       d="m 91.13,36 c -4,-1.84 -9.72,-3 -16.13,-3 -6.41,0 -12.17,1.16 -16.13,3 2.87,-3 9,-5.1 16.13,-5.1 7.13,0 13.26,2.1 16.13,5.1 z"
       id="path1168" />
  </g>
</svg>
