<?xml version="1.0" encoding="UTF-8" standalone="no"?>
<svg
   xmlns:dc="http://purl.org/dc/elements/1.1/"
   xmlns:cc="http://creativecommons.org/ns#"
   xmlns:rdf="http://www.w3.org/1999/02/22-rdf-syntax-ns#"
   xmlns:svg="http://www.w3.org/2000/svg"
   xmlns="http://www.w3.org/2000/svg"
   xmlns:sodipodi="http://sodipodi.sourceforge.net/DTD/sodipodi-0.dtd"
   xmlns:inkscape="http://www.inkscape.org/namespaces/inkscape"
   version="1.1"
   id="Capa_1"
   x="0px"
   y="0px"
   viewBox="0 0 503.894 503.894"
   style="enable-background:new 0 0 503.894 503.894;"
   xml:space="preserve"
   sodipodi:docname="fruta.svg"
   inkscape:version="1.0.1 (3bc2e813f5, 2020-09-07)"><metadata
   id="metadata45"><rdf:RDF><cc:Work
       rdf:about=""><dc:format>image/svg+xml</dc:format><dc:type
         rdf:resource="http://purl.org/dc/dcmitype/StillImage" /></cc:Work></rdf:RDF></metadata><defs
   id="defs43" /><sodipodi:namedview
   pagecolor="#ffffff"
   bordercolor="#666666"
   borderopacity="1"
   objecttolerance="10"
   gridtolerance="10"
   guidetolerance="10"
   inkscape:pageopacity="0"
   inkscape:pageshadow="2"
   inkscape:window-width="1680"
   inkscape:window-height="989"
   id="namedview41"
   showgrid="false"
   inkscape:zoom="0.59148452"
   inkscape:cx="143.16283"
   inkscape:cy="360.23344"
   inkscape:window-x="0"
   inkscape:window-y="24"
   inkscape:window-maximized="1"
   inkscape:current-layer="Capa_1" />
<path
   style="fill:#4197b2;fill-opacity:1"
   d="M253.483,120.441c-72.72,6.416-126.336-47.216-119.936-119.92  C206.267-5.895,259.883,47.737,253.483,120.441z"
   id="path2" />
<path
   style="fill:#53748e;fill-opacity:1"
   d="M256.267,171.097c-6.272-1.568-11.2-6.88-11.952-13.68c-3.44-31.152,5.472-61.76,25.056-86.208  c19.6-24.448,47.552-39.808,78.688-43.232c8.736-0.944,16.576,5.344,17.52,14.064c0.96,8.72-5.328,16.56-14.048,17.536  c-22.704,2.496-43.072,13.68-57.36,31.504s-20.768,40.128-18.272,62.832c0.96,8.736-5.328,16.576-14.064,17.552  C259.915,171.689,258.043,171.545,256.267,171.097z"
   id="path4" />
<path
   style="fill:#4bd2e1;fill-opacity:1"
   d="M374.075,120.249c-17.344-4.624-35.28-3.664-52.88,2c-45.216,14.576-93.296,14.576-138.512,0  c-17.6-5.664-35.536-6.624-52.88-2c-69.248,18.448-102.656,118.624-74.64,223.76s106.848,175.392,176.096,156.944  c0.08-0.016,0.144-0.032,0.224-0.064c13.456-3.632,27.472-3.632,40.928,0c0.08,0.016,0.144,0.032,0.224,0.064  c69.232,18.448,148.08-51.824,176.096-156.944C476.731,238.873,443.307,138.697,374.075,120.249z"
   id="path6" />
<path
   style="fill:#3fcbd0;fill-opacity:1"
   d="M448.715,343.993c-28,105.12-106.88,175.36-176.16,156.96h-0.16c-13.44-3.68-27.52-3.68-40.96,0  h-0.16c-26.08,6.88-53.44,1.28-78.88-13.92c135.84-52.48,237.6-184.96,258.88-346.4  C454.315,179.193,471.115,259.993,448.715,343.993z"
   id="path8" />
<g
   id="g10">
</g>
<g
   id="g12">
</g>
<g
   id="g14">
</g>
<g
   id="g16">
</g>
<g
   id="g18">
</g>
<g
   id="g20">
</g>
<g
   id="g22">
</g>
<g
   id="g24">
</g>
<g
   id="g26">
</g>
<g
   id="g28">
</g>
<g
   id="g30">
</g>
<g
   id="g32">
</g>
<g
   id="g34">
</g>
<g
   id="g36">
</g>
<g
   id="g38">
</g>
</svg>
