<?xml version="1.0" encoding="UTF-8" standalone="no"?>
<svg
   xmlns:dc="http://purl.org/dc/elements/1.1/"
   xmlns:cc="http://creativecommons.org/ns#"
   xmlns:rdf="http://www.w3.org/1999/02/22-rdf-syntax-ns#"
   xmlns:svg="http://www.w3.org/2000/svg"
   xmlns="http://www.w3.org/2000/svg"
   xmlns:sodipodi="http://sodipodi.sourceforge.net/DTD/sodipodi-0.dtd"
   xmlns:inkscape="http://www.inkscape.org/namespaces/inkscape"
   sodipodi:docname="best.svg"
   inkscape:version="1.0 (6e3e5246a0, 2020-05-07)"
   id="svg8"
   version="1.1"
   viewBox="0 0 13.493749 16.668746"
   height="63"
   width="51">
  <defs
     id="defs2" />
  <sodipodi:namedview
     inkscape:window-maximized="1"
     inkscape:window-y="27"
     inkscape:window-x="0"
     inkscape:window-height="986"
     inkscape:window-width="1680"
     units="px"
     inkscape:guide-bbox="true"
     showguides="true"
     showgrid="false"
     inkscape:document-rotation="0"
     inkscape:current-layer="layer1"
     inkscape:document-units="px"
     inkscape:cy="54.446108"
     inkscape:cx="47.501039"
     inkscape:zoom="5.6"
     inkscape:pageshadow="2"
     inkscape:pageopacity="0.0"
     borderopacity="1.0"
     bordercolor="#666666"
     pagecolor="#ffffff"
     id="base">
    <sodipodi:guide
       id="guide849"
       orientation="1,0"
       position="61.515624,196.93081" />
    <sodipodi:guide
       id="guide851"
       orientation="1,0"
       position="45.640624,196.93081" />
    <sodipodi:guide
       id="guide853"
       orientation="0,-1"
       position="93.360117,229.62575" />
    <sodipodi:guide
       id="guide855"
       orientation="0,-1"
       position="101.10863,243.61087" />
    <sodipodi:guide
       id="guide857"
       orientation="1,0"
       position="126.33854,195.89137" />
    <sodipodi:guide
       id="guide859"
       orientation="1,0"
       position="142.02455,196.83631" />
    <sodipodi:guide
       id="guide861"
       orientation="0,-1"
       position="94.021575,164.99182" />
    <sodipodi:guide
       id="guide863"
       orientation="0,-1"
       position="89.863837,151.10119" />
  </sodipodi:namedview>
  <metadata
     id="metadata5">
    <rdf:RDF>
      <cc:Work
         rdf:about="">
        <dc:format>image/svg+xml</dc:format>
        <dc:type
           rdf:resource="http://purl.org/dc/dcmitype/StillImage" />
        <dc:title></dc:title>
      </cc:Work>
    </rdf:RDF>
  </metadata>
  <g
     id="layer1"
     inkscape:groupmode="layer"
     inkscape:label="Layer 1">
    <g
       transform="matrix(0.12523547,0,0,0.12523547,-5.3111573,-6.3277536)"
       id="g922">
      <g
         id="g893"
         transform="matrix(-1,0,0,1,-40.154046,159.03656)">
        <path
           style="fill:#ffffff;fill-opacity:1;stroke:#075f9e;stroke-width:3.20146;stroke-linecap:round;stroke-linejoin:round;stroke-miterlimit:4;stroke-dasharray:none;stroke-opacity:1"
           d="m -142.73149,-16.312768 16.80021,38.389681 16.59765,-17.4845558 24.237699,0.4912204 -14.899338,-35.5282576 z"
           id="path889" />
        <path
           style="fill:#ffffff;fill-opacity:1;stroke:#075f9e;stroke-width:3.20146;stroke-linecap:round;stroke-linejoin:round;stroke-miterlimit:4;stroke-dasharray:none;stroke-opacity:1"
           d="m -121.47658,8.7554177 9.31327,-10.0428309 17.561831,0.84695845 -3.814071,-9.03975885"
           id="path891" />
      </g>
      <g
         id="g887"
         transform="translate(232.59533,159.03656)">
        <path
           id="path881"
           d="m -142.73149,-16.312768 16.80021,38.389681 16.59765,-17.4845558 24.237699,0.4912204 -14.899338,-35.5282576 z"
           style="fill:#ffffff;fill-opacity:1;stroke:#075f9e;stroke-width:3.20146;stroke-linecap:round;stroke-linejoin:round;stroke-miterlimit:4;stroke-dasharray:none;stroke-opacity:1" />
        <path
           id="path883"
           d="m -121.47658,8.7554177 9.31327,-10.0428309 17.561831,0.84695845 -3.814071,-9.03975885"
           style="fill:#ffffff;fill-opacity:1;stroke:#075f9e;stroke-width:3.20146;stroke-linecap:round;stroke-linejoin:round;stroke-miterlimit:4;stroke-dasharray:none;stroke-opacity:1" />
      </g>
      <path
         sodipodi:type="star"
         style="fill:#fffffe;fill-opacity:1;stroke:#095f9f;stroke-width:3.87923;stroke-miterlimit:4;stroke-dasharray:none;stroke-opacity:1"
         id="path869"
         sodipodi:sides="10"
         sodipodi:cx="-42.55283"
         sodipodi:cy="208.43324"
         sodipodi:r1="47.116398"
         sodipodi:r2="41.8438"
         sodipodi:arg1="-0.038392405"
         sodipodi:arg2="0.27576686"
         inkscape:flatsided="false"
         inkscape:rounded="0.38"
         inkscape:randomized="0.002"
         d="m 4.4646204,206.5834 c 0.215601,5.64103 -5.15238988,7.80971 -6.6835151,13.24031 -1.5311252,5.4306 2.02530444,10.19431 -1.1137118,14.89311 -3.1390162,4.6988 -8.8564865,3.19244 -13.2925225,6.68878 -4.436037,3.49633 -4.335609,9.26294 -9.639788,11.19735 -5.304178,1.93441 -9.025537,-2.63561 -14.666298,-2.43647 -5.640762,0.19914 -9.096156,5.1605 -14.529082,3.62942 -5.432926,-1.53107 -5.658525,-7.47255 -10.347985,-10.6201 -4.689461,-3.14754 -10.317341,-1.08949 -13.820017,-5.52337 -3.502676,-4.43388 -0.30404,-9.3791 -2.267271,-14.67763 -1.963231,-5.29852 -7.589885,-7.08504 -7.795091,-12.72867 -0.205205,-5.64362 5.256277,-7.7348 6.786941,-13.16991 1.530664,-5.43511 -2.038718,-10.19225 1.113715,-14.87224 3.152432,-4.67999 8.959128,-3.095 13.396145,-6.58122 4.437016,-3.48622 4.195847,-9.49076 9.49788,-11.44651 5.302033,-1.95575 9.02766,2.6821 14.666495,2.47362 5.638836,-0.20849 9.088396,-5.09718 14.518728,-3.54423 5.430331,1.55295 5.707089,7.49543 10.396427,10.63936 4.689339,3.14393 10.279265,1.14108 13.7817324,5.57023 3.5024673,4.42916 0.3459224,9.33894 2.3055557,14.63077 1.9596333,5.29183 7.4760614,6.99637 7.6916623,12.6374 z"
         inkscape:transform-center-x="-0.00076344318"
         inkscape:transform-center-y="9.3007659e-05"
         transform="matrix(1.0224183,0.03668001,-0.03668001,1.0224183,145.00896,-111.86819)" />
      <rect
         style="fill:none;fill-opacity:1;stroke:#fdb266;stroke-width:3.69655;stroke-miterlimit:4;stroke-dasharray:none;stroke-opacity:1"
         id="rect865"
         width="60.377048"
         height="60.201031"
         x="63.458092"
         y="69.950256"
         rx="30.100515"
         ry="30.100515" />
      <g
         id="g907"
         transform="matrix(0.96433537,0,0,0.96433537,8.5408425,0.51153426)"
         style="fill:#fdb266;fill-opacity:1">
        <text
           id="text897"
           y="100.39126"
           x="66.005638"
           style="font-style:normal;font-variant:normal;font-weight:normal;font-stretch:normal;font-size:26.1515px;line-height:1.25;font-family:Uroob;-inkscape-font-specification:Uroob;fill:#fdb266;fill-opacity:1;stroke:none;stroke-width:0.653788"
           xml:space="preserve"><tspan
             style="font-style:normal;font-variant:normal;font-weight:normal;font-stretch:normal;font-family:Uroob;-inkscape-font-specification:Uroob;fill:#fdb266;fill-opacity:1;stroke-width:0.653788"
             y="100.39126"
             x="66.005638"
             id="tspan895"
             sodipodi:role="line">#</tspan></text>
        <text
           id="text901"
           y="128.86652"
           x="79.49852"
           style="font-style:normal;font-variant:normal;font-weight:normal;font-stretch:normal;font-size:78.1053px;line-height:1.25;font-family:Uroob;-inkscape-font-specification:Uroob;fill:#fdb266;fill-opacity:1;stroke:none;stroke-width:1.95263"
           xml:space="preserve"><tspan
             style="font-style:normal;font-variant:normal;font-weight:normal;font-stretch:normal;font-family:Uroob;-inkscape-font-specification:Uroob;fill:#fdb266;fill-opacity:1;stroke-width:1.95263"
             y="128.86652"
             x="79.49852"
             id="tspan899"
             sodipodi:role="line">1</tspan></text>
      </g>
    </g>
  </g>
</svg>
