<?xml version="1.0" encoding="UTF-8" standalone="no"?>
<svg
   xmlns:dc="http://purl.org/dc/elements/1.1/"
   xmlns:cc="http://creativecommons.org/ns#"
   xmlns:rdf="http://www.w3.org/1999/02/22-rdf-syntax-ns#"
   xmlns:svg="http://www.w3.org/2000/svg"
   xmlns="http://www.w3.org/2000/svg"
   xmlns:sodipodi="http://sodipodi.sourceforge.net/DTD/sodipodi-0.dtd"
   xmlns:inkscape="http://www.inkscape.org/namespaces/inkscape"
   inkscape:version="1.0 (6e3e5246a0, 2020-05-07)"
   sodipodi:docname="iconfinder___food_apple_grocery_gastronomy_3668857.svg"
   xml:space="preserve"
   viewBox="0 0 30 30"
   version="1.1"
   style="enable-background:new 0 0 30 30;"
   id="Layer_1"><metadata
     id="metadata11"><rdf:RDF><cc:Work
         rdf:about=""><dc:format>image/svg+xml</dc:format><dc:type
           rdf:resource="http://purl.org/dc/dcmitype/StillImage" /></cc:Work></rdf:RDF></metadata><defs
     id="defs9" /><sodipodi:namedview
     inkscape:current-layer="Layer_1"
     inkscape:window-maximized="1"
     inkscape:window-y="27"
     inkscape:window-x="0"
     inkscape:cy="15"
     inkscape:cx="15"
     inkscape:zoom="28"
     showgrid="false"
     id="namedview7"
     inkscape:window-height="986"
     inkscape:window-width="1680"
     inkscape:pageshadow="2"
     inkscape:pageopacity="0"
     guidetolerance="10"
     gridtolerance="10"
     objecttolerance="10"
     borderopacity="1"
     bordercolor="#666666"
     pagecolor="#ffffff" /><style
     id="style2"
     type="text/css">
	.st0{fill:#FD6A7E;}
	.st1{fill:#17B978;}
	.st2{fill:#8797EE;}
	.st3{fill:#41A6F9;}
	.st4{fill:#37E0FF;}
	.st5{fill:#2FD9B9;}
	.st6{fill:#F498BD;}
	.st7{fill:#FFDF1D;}
	.st8{fill:#C6C9CC;}
</style><path
     style="fill:#b91717;fill-opacity:1"
     id="path4"
     d="M13.2,26.5L13.2,26.5c-1.1,0.7-2.6,0.6-3.7-0.1c-2.1-1.4-5.1-4.4-5.2-10.7c-0.1-2.9,2.1-5.5,5-5.7  c1.2-0.1,2.4,0.3,3.3,0.9c1.4,0.9,3.3,0.9,4.7,0c0.9-0.6,2.1-1,3.3-0.9c2.9,0.2,5.1,2.8,5,5.7c-0.1,6.3-3.1,9.4-5.2,10.7  c-1.1,0.7-2.5,0.7-3.7,0.1l0,0C15.7,25.9,14.3,25.9,13.2,26.5z M15.3,4.5c-1.3,1.3-1.8,3-1.5,4.6c1.6,0.3,3.3-0.2,4.6-1.5  s1.8-3,1.5-4.6C18.4,2.7,16.6,3.2,15.3,4.5z"
     class="st1" /></svg>
