<?xml version="1.0" encoding="UTF-8" standalone="no"?>
<svg
   xmlns:dc="http://purl.org/dc/elements/1.1/"
   xmlns:cc="http://creativecommons.org/ns#"
   xmlns:rdf="http://www.w3.org/1999/02/22-rdf-syntax-ns#"
   xmlns:svg="http://www.w3.org/2000/svg"
   xmlns="http://www.w3.org/2000/svg"
   xmlns:sodipodi="http://sodipodi.sourceforge.net/DTD/sodipodi-0.dtd"
   xmlns:inkscape="http://www.inkscape.org/namespaces/inkscape"
   sodipodi:docname="logo.svg"
   inkscape:version="1.0 (6e3e5246a0, 2020-05-07)"
   id="svg8"
   version="1.1"
   viewBox="0 0 50 50"
   height="50mm"
   width="50mm">
  <defs
     id="defs2" />
  <sodipodi:namedview
     inkscape:window-maximized="1"
     inkscape:window-y="27"
     inkscape:window-x="0"
     inkscape:window-height="986"
     inkscape:window-width="1680"
     showgrid="false"
     inkscape:document-rotation="0"
     inkscape:current-layer="layer1"
     inkscape:document-units="mm"
     inkscape:cy="241.49675"
     inkscape:cx="181.78509"
     inkscape:zoom="1.4"
     inkscape:pageshadow="2"
     inkscape:pageopacity="0.0"
     borderopacity="1.0"
     bordercolor="#666666"
     pagecolor="#ffffff"
     id="base" />
  <metadata
     id="metadata5">
    <rdf:RDF>
      <cc:Work
         rdf:about="">
        <dc:format>image/svg+xml</dc:format>
        <dc:type
           rdf:resource="http://purl.org/dc/dcmitype/StillImage" />
        <dc:title></dc:title>
      </cc:Work>
    </rdf:RDF>
  </metadata>
  <g
     id="layer1"
     inkscape:groupmode="layer"
     inkscape:label="Layer 1">
    <g
       transform="matrix(0.62366487,0,0,0.62366487,-39.712132,-105.06571)"
       id="g940">
      <rect
         ry="7.1337891"
         rx="7.1337891"
         y="201.78224"
         x="98.125069"
         height="14.267578"
         width="14.267578"
         id="rect859"
         style="fill:none;fill-opacity:0.539638;stroke:#075f9e;stroke-width:4.87782;stroke-linecap:round;stroke-linejoin:round" />
      <g
         id="g900"
         transform="translate(121.76216)">
        <path
           sodipodi:nodetypes="cssssc"
           id="path896"
           d="m -29.513064,181.62617 c 0,0 -5.565549,7.80071 -5.565549,26.74658 0,14.13721 4.187823,38.25639 18.32503,38.24839 13.9558967,-0.008 18.0313887,-23.8225 18.0470877,-37.77839 0.03962,-35.22217 -15.3394787,-38.36261 -17.7959427,-38.36261 -3.002622,0 -5.070062,1.2331 -6.737943,2.47872"
           style="fill:none;stroke:#075f9e;stroke-width:3;stroke-linecap:butt;stroke-linejoin:miter;stroke-miterlimit:4;stroke-dasharray:none;stroke-opacity:1" />
        <rect
           style="fill:none;fill-opacity:0.539638;stroke:#075f9e;stroke-width:3;stroke-linecap:round;stroke-linejoin:round;stroke-miterlimit:4;stroke-dasharray:none"
           id="rect869"
           width="10.509804"
           height="10.509804"
           x="-32.082302"
           y="171.71324"
           rx="5.2549019"
           ry="5.2549019" />
      </g>
      <g
         transform="matrix(0.5,-0.8660254,-0.8660254,-0.5,294.17562,298.57931)"
         id="g915">
        <path
           style="fill:none;stroke:#075f9e;stroke-width:3;stroke-linecap:butt;stroke-linejoin:miter;stroke-miterlimit:4;stroke-dasharray:none;stroke-opacity:1"
           d="m -29.513064,181.62617 c 0,0 -5.565549,7.80071 -5.565549,26.74658 0,14.13721 4.187823,38.25639 18.32503,38.24839 13.9558967,-0.008 18.0313887,-23.8225 18.0470877,-37.77839 0.03962,-35.22217 -15.3394787,-38.36261 -17.7959427,-38.36261 -3.002622,0 -5.070062,1.2331 -6.737943,2.47872"
           id="path911"
           sodipodi:nodetypes="cssssc" />
        <rect
           ry="5.2549019"
           rx="5.2549019"
           y="171.71324"
           x="-32.082302"
           height="10.509804"
           width="10.509804"
           id="rect913"
           style="fill:none;fill-opacity:0.539638;stroke:#075f9e;stroke-width:3;stroke-linecap:round;stroke-linejoin:round;stroke-miterlimit:4;stroke-dasharray:none" />
      </g>
      <g
         id="g921"
         transform="matrix(0.51653577,0.8562656,0.8562656,-0.51653577,-64.521063,331.19864)">
        <path
           sodipodi:nodetypes="cssssc"
           id="path917"
           d="m -29.513064,181.62617 c 0,0 -5.565549,7.80071 -5.565549,26.74658 0,14.13721 4.187823,38.25639 18.32503,38.24839 13.9558967,-0.008 18.0313887,-23.8225 18.0470877,-37.77839 0.03962,-35.22217 -15.3394787,-38.36261 -17.7959427,-38.36261 -3.002622,0 -5.070062,1.2331 -6.737943,2.47872"
           style="fill:none;stroke:#075f9e;stroke-width:3;stroke-linecap:butt;stroke-linejoin:miter;stroke-miterlimit:4;stroke-dasharray:none;stroke-opacity:1" />
        <rect
           style="fill:none;fill-opacity:0.539638;stroke:#075f9e;stroke-width:3;stroke-linecap:round;stroke-linejoin:round;stroke-miterlimit:4;stroke-dasharray:none"
           id="rect919"
           width="10.509804"
           height="10.509804"
           x="-32.082302"
           y="171.71324"
           rx="5.2549019"
           ry="5.2549019" />
      </g>
    </g>
  </g>
</svg>
